<svg xmlns="http://www.w3.org/2000/svg" viewBox="0 0 206 238" role="img" aria-label="Turbo Notify">
  <title>Turbo Notify</title>
  <defs>
    <linearGradient id="ig" x1="12360" y1="14280" x2="0" y2="0" gradientUnits="userSpaceOnUse">
      <stop offset="0%" stop-color="#6edebe"/>
      <stop offset="50%" stop-color="#23b38a"/>
      <stop offset="100%" stop-color="#177d60"/>
    </linearGradient>
  </defs>
  <style>
    @media (prefers-color-scheme: dark) {
      #fav-bg { display: block; }
    }
  </style>
  <rect id="fav-bg" display="none" width="206" height="238" rx="32" fill="#0a3829"/>
  <svg x="0" y="0" width="206" height="238" viewBox="0 0 1236 1428">
    <g transform="translate(0,1428) scale(0.1,-0.1)" fill="url(#ig)" stroke="none">
    <path d="M6517 14266 c-3 -8 -34 -25 -68 -37 -49 -18 -69 -32 -100 -71 -64 -81 -64 -150 0 -221 58 -65 95 -76 246 -77 180 -1 454 -16 615 -34 74 -8 187 -20 250 -26 63 -6 144 -19 180 -30 36 -10 102 -24 147 -29 46 -6 109 -17 140 -25 32 -8 109 -24 172 -36 63 -11 142 -28 175 -39 34 -10 88 -25 121 -34 33 -9 101 -27 150 -42 50 -14 132 -37 182 -50 51 -13 106 -31 122 -40 39 -20 133 -55 315 -116 82 -28 160 -58 174 -67 25 -16 87 -44 187 -84 28 -11 100 -44 160 -73 61 -29 147 -69 192 -89 45 -19 115 -54 155 -77 149 -86 164 -92 175 -63 10 26 -124 146 -365 326 -119 89 -184 133 -222 153 -19 10 -66 39 -105 64 -126 84 -347 201 -495 261 -41 17 -88 38 -105 47 -103 58 -265 123 -394 159 -30 9 -63 22 -75 29 -29 19 -225 83 -311 101 -38 8 -97 23 -130 34 -33 10 -80 22 -105 26 -25 3 -67 15 -93 25 -55 22 -456 77 -677 94 -107 8 -176 23 -191 41 -17 21 -414 21 -422 0z"/>
    <path d="M4962 14010 c-41 -11 -97 -22 -125 -26 -29 -4 -74 -15 -102 -26 -27 -10 -86 -27 -130 -38 -291 -68 -431 -108 -512 -145 -29 -14 -112 -44 -185 -69 -138 -46 -274 -100 -293 -116 -6 -5 -60 -29 -121 -53 -60 -24 -146 -65 -192 -90 -46 -25 -126 -67 -180 -92 -53 -25 -103 -52 -112 -60 -8 -7 -69 -43 -135 -80 -66 -37 -136 -79 -155 -94 -20 -16 -53 -38 -75 -49 -38 -20 -113 -69 -291 -191 -96 -66 -231 -170 -299 -231 -27 -25 -93 -80 -146 -123 -53 -42 -104 -88 -112 -101 -9 -13 -58 -57 -109 -99 -119 -96 -238 -220 -238 -248 0 -18 37 -8 86 24 143 91 209 134 239 158 19 14 84 55 145 90 62 35 137 83 168 105 32 23 109 70 172 105 63 34 122 68 130 75 8 6 83 47 165 90 83 42 164 86 180 96 17 10 36 18 44 18 8 0 94 40 190 88 97 49 223 106 281 127 58 21 116 47 130 56 30 20 138 64 235 95 147 48 218 74 230 84 14 12 164 60 295 96 188 50 259 71 291 87 19 8 139 36 268 61 128 25 257 53 285 61 28 9 82 20 120 25 81 12 177 59 211 105 55 71 41 169 -35 249 l-49 51 -98 2 c-72 2 -117 -2 -171 -17z"/>
    <path d="M6315 13114 c-71 -7 -160 -18 -197 -24 -37 -5 -95 -10 -130 -10 -60 0 -244 -20 -503 -55 -150 -20 -404 -71 -470 -95 -27 -9 -81 -23 -120 -29 -95 -16 -340 -78 -368 -93 -12 -6 -49 -19 -82 -29 -33 -9 -85 -26 -115 -37 -30 -11 -109 -37 -175 -57 -66 -21 -131 -45 -145 -55 -14 -9 -52 -26 -85 -39 -33 -12 -94 -35 -135 -50 -41 -16 -100 -41 -131 -57 -31 -16 -133 -67 -225 -114 -93 -47 -183 -94 -199 -106 -17 -12 -46 -29 -65 -38 -30 -14 -132 -78 -347 -219 -226 -147 -411 -288 -648 -493 -398 -343 -838 -827 -1079 -1184 -35 -52 -78 -113 -95 -134 -18 -22 -54 -78 -82 -125 -28 -47 -68 -115 -91 -151 -37 -59 -59 -100 -175 -315 -20 -38 -47 -92 -59 -120 -11 -27 -50 -111 -86 -185 -36 -74 -89 -205 -118 -290 -28 -85 -57 -164 -64 -175 -16 -24 -62 -180 -86 -290 -29 -129 -61 -255 -86 -335 -13 -41 -30 -129 -39 -195 -8 -66 -20 -142 -25 -170 -33 -166 -64 -802 -50 -1015 5 -85 15 -243 21 -350 6 -107 21 -262 34 -345 13 -82 27 -170 31 -195 3 -25 13 -61 21 -80 8 -19 23 -71 32 -115 35 -155 117 -429 146 -490 26 -52 64 -150 94 -245 10 -30 52 -125 93 -210 42 -85 79 -166 83 -180 4 -14 34 -78 66 -142 31 -65 74 -168 95 -230 20 -62 45 -133 55 -158 19 -45 44 -131 76 -265 24 -103 25 -521 0 -620 -25 -101 -62 -232 -85 -295 -11 -30 -34 -102 -52 -160 -18 -58 -46 -134 -62 -170 -17 -36 -41 -87 -54 -115 -12 -27 -42 -93 -65 -145 -23 -52 -50 -106 -59 -120 -10 -14 -35 -56 -57 -95 -54 -94 -117 -199 -155 -260 -60 -97 -97 -165 -135 -252 -35 -81 -38 -96 -38 -178 0 -90 0 -91 44 -158 51 -78 107 -132 166 -158 89 -39 293 -46 540 -18 109 12 341 63 412 91 29 11 76 26 105 33 98 24 273 74 328 93 30 11 78 27 105 37 154 54 228 78 300 96 44 11 114 31 155 44 210 65 262 75 456 85 104 5 241 13 304 16 145 8 526 -19 675 -46 61 -12 144 -25 185 -31 41 -5 100 -18 130 -29 30 -10 98 -24 150 -30 52 -6 142 -19 200 -30 58 -10 150 -24 205 -30 55 -6 134 -20 176 -31 42 -10 145 -23 230 -29 85 -5 208 -15 274 -20 137 -12 479 -11 605 1 47 5 171 13 275 19 105 6 218 17 253 25 35 8 136 24 225 35 194 24 483 74 517 90 24 10 143 43 280 77 124 30 275 74 325 94 61 25 190 73 265 99 144 49 206 72 234 89 17 10 69 35 116 55 106 46 227 105 260 126 14 9 68 36 120 60 52 24 122 62 155 84 33 23 99 63 147 91 78 45 170 104 313 202 28 18 79 56 115 84 36 27 116 89 179 137 62 48 147 114 188 147 41 33 94 75 117 93 112 90 473 432 617 584 196 208 395 439 479 553 23 33 69 94 100 135 51 67 210 307 343 515 26 41 73 124 104 183 31 59 64 118 73 132 19 27 55 104 114 240 20 47 44 99 53 115 38 71 53 106 87 206 19 59 44 126 55 150 50 113 76 194 135 425 13 50 28 99 34 110 17 33 80 303 96 414 38 264 48 356 56 520 9 171 32 357 51 406 12 34 12 330 -1 354 -21 39 -42 171 -51 324 -18 323 -80 668 -163 916 -8 25 -32 106 -52 180 -37 136 -76 244 -120 334 -13 28 -24 56 -24 64 0 7 -12 44 -26 80 -24 62 -54 126 -193 412 -154 317 -501 811 -770 1095 -252 266 -506 493 -744 664 -34 25 -93 67 -132 96 -38 28 -104 70 -145 95 -41 24 -84 51 -95 60 -28 23 -129 82 -205 120 -36 18 -80 44 -97 57 -31 22 -111 62 -263 129 -36 15 -78 37 -95 49 -34 23 -117 57 -225 90 -76 24 -194 71 -246 98 -16 8 -101 34 -189 56 -88 23 -182 51 -210 61 -27 11 -88 27 -135 36 -47 8 -110 22 -141 29 -31 8 -123 24 -205 34 -82 11 -194 27 -249 36 -55 8 -138 15 -185 15 -47 0 -116 7 -155 15 -164 36 -662 46 -920 19z m2216 -1619 c66 -35 85 -117 53 -225 -15 -52 -64 -149 -90 -180 -7 -8 -38 -60 -70 -115 -31 -55 -72 -125 -90 -155 -18 -30 -58 -100 -89 -155 -31 -55 -72 -125 -90 -155 -19 -30 -53 -92 -75 -137 -22 -45 -60 -113 -85 -150 -25 -37 -71 -115 -101 -173 -47 -90 -177 -321 -277 -496 -31 -52 -105 -187 -194 -349 -31 -55 -72 -125 -93 -155 -21 -30 -63 -104 -95 -165 -32 -60 -65 -119 -75 -130 -10 -11 -48 -76 -85 -145 -37 -69 -76 -134 -85 -145 -9 -11 -44 -69 -77 -130 -33 -60 -79 -139 -102 -174 -43 -67 -49 -92 -28 -109 6 -5 111 -13 232 -16 121 -4 272 -12 335 -17 121 -11 318 -21 770 -38 151 -6 363 -20 470 -31 107 -10 294 -22 415 -25 272 -7 372 -17 499 -50 127 -34 223 -82 271 -137 60 -70 68 -92 63 -177 -5 -67 -11 -87 -58 -176 -28 -55 -70 -122 -91 -150 -22 -27 -65 -84 -97 -125 -76 -100 -592 -622 -815 -824 -231 -210 -503 -441 -636 -541 -63 -48 -222 -172 -322 -253 -245 -196 -335 -266 -464 -363 -82 -62 -177 -133 -210 -158 -33 -25 -89 -66 -125 -90 -36 -24 -76 -54 -90 -67 -14 -12 -61 -47 -105 -76 -44 -29 -114 -78 -155 -109 -41 -30 -85 -61 -96 -69 -12 -8 -50 -35 -84 -60 -105 -75 -280 -197 -360 -250 -41 -27 -111 -75 -155 -105 -44 -30 -108 -74 -142 -98 -34 -23 -92 -64 -130 -90 -203 -143 -446 -303 -536 -356 -23 -13 -91 -56 -152 -96 -60 -39 -141 -89 -180 -110 -38 -21 -83 -49 -100 -61 -16 -12 -93 -54 -170 -94 -77 -40 -152 -81 -167 -92 -43 -30 -179 -72 -233 -72 -139 0 -191 112 -111 241 20 33 62 89 94 125 54 62 93 109 233 278 34 41 89 104 123 140 34 36 81 90 103 120 22 30 53 66 68 80 15 14 92 100 171 192 79 92 148 170 154 173 6 4 28 30 50 59 21 30 69 87 107 129 102 112 231 262 294 341 31 39 66 80 79 91 12 11 45 49 73 85 28 36 94 112 147 170 53 58 113 128 135 155 21 28 60 73 86 100 25 28 66 75 90 106 52 66 170 205 254 297 33 37 93 105 132 152 39 47 139 157 223 245 145 154 174 195 152 217 -14 14 -337 11 -542 -7 -96 -8 -283 -19 -415 -25 -281 -12 -445 -24 -608 -45 -66 -8 -147 -15 -180 -15 -34 0 -123 -9 -197 -19 -74 -11 -173 -22 -220 -26 -167 -12 -337 -26 -490 -40 -206 -19 -565 -35 -772 -35 -188 0 -289 11 -398 43 -62 18 -84 30 -127 72 -41 40 -55 62 -68 109 -17 57 -17 63 1 140 15 66 29 97 82 176 35 52 87 120 116 150 29 30 74 82 101 115 142 179 795 856 1075 1115 74 69 187 174 250 234 63 60 156 143 205 184 50 41 101 87 115 102 34 38 348 308 529 455 82 66 193 158 248 205 55 47 153 128 218 180 65 52 148 120 184 151 36 30 145 114 241 187 96 72 222 168 280 213 381 294 686 512 955 684 52 34 105 70 117 81 13 12 73 52 133 89 61 37 119 75 130 85 11 9 54 36 95 60 41 25 107 65 145 90 334 215 427 255 506 215z"/>
    <path d="M10840 2743 c-14 -10 -59 -49 -101 -87 -99 -93 -296 -268 -334 -297 -16 -13 -70 -57 -120 -99 -175 -146 -462 -352 -725 -520 -65 -41 -126 -82 -137 -91 -10 -9 -49 -33 -88 -54 -92 -50 -186 -106 -205 -122 -9 -7 -61 -35 -115 -62 -55 -28 -131 -69 -170 -92 -38 -23 -119 -63 -180 -91 -60 -27 -117 -55 -125 -63 -8 -7 -40 -23 -70 -35 -69 -28 -222 -87 -275 -107 -22 -8 -53 -23 -70 -33 -16 -9 -54 -25 -83 -35 -62 -20 -133 -58 -154 -82 -42 -50 -78 -125 -78 -164 0 -76 58 -144 154 -180 l59 -21 89 21 c112 28 255 80 334 123 34 18 107 57 163 86 56 29 134 73 174 99 39 26 106 65 147 86 41 21 98 56 125 77 28 21 82 58 120 82 39 25 89 60 112 79 23 19 84 63 135 99 50 36 110 81 132 101 23 20 67 54 98 77 31 23 59 46 63 52 3 5 50 48 103 94 285 247 673 648 893 921 33 40 79 93 103 117 36 36 86 113 86 133 0 11 -36 3 -60 -12z"/>
    </g>
  </svg>
</svg>