<svg xmlns="http://www.w3.org/2000/svg" viewBox="0 0 2400.0 928.0" role="img" aria-label="Turbo Notify">
  <title>Turbo Notify</title>
  <defs>
    <linearGradient id="g" x1="0.7" y1="0" x2="0.3" y2="1">
      <stop offset="0%" stop-color="#6edebe"/>
      <stop offset="50%" stop-color="#23b38a"/>
      <stop offset="100%" stop-color="#177d60"/>
    </linearGradient>
  </defs>
  <g transform="translate(0,928.0) scale(0.1,-0.1)" fill="url(#g)" stroke="none">
    <path d="M4280 9265 c-8 -9 -30 -28 -47 -44 -29 -25 -33 -35 -33 -78 0 -47 2
-51 41 -76 40 -27 43 -27 210 -27 119 0 181 -4 211 -14 24 -8 108 -17 188 -21
86 -4 177 -15 224 -26 43 -10 103 -19 133 -19 34 0 68 -7 93 -20 22 -11 59
-20 85 -20 25 0 59 -7 74 -15 16 -8 55 -18 87 -24 33 -5 73 -16 89 -25 17 -9
44 -16 60 -16 17 0 47 -9 68 -20 20 -11 50 -20 65 -20 16 0 37 -9 47 -20 10
-11 31 -20 47 -20 16 0 46 -9 68 -20 22 -11 47 -20 57 -20 10 0 33 -9 51 -20
18 -11 43 -20 56 -20 12 0 31 -9 41 -20 10 -11 29 -20 42 -20 14 0 36 -9 50
-20 14 -11 36 -20 48 -20 12 0 34 -9 48 -20 14 -11 36 -20 50 -20 13 0 32 -9
42 -20 10 -11 28 -20 40 -20 12 0 34 -9 48 -20 28 -22 62 -26 73 -9 7 12 -25
42 -91 87 -22 14 -61 43 -86 64 -26 21 -50 38 -55 38 -4 0 -15 6 -23 14 -9 7
-43 28 -76 45 -32 18 -66 38 -75 45 -8 8 -25 17 -37 20 -11 4 -27 13 -33 21
-7 8 -20 15 -30 15 -9 0 -29 9 -43 20 -14 11 -34 20 -45 20 -10 0 -27 9 -37
20 -10 11 -28 20 -40 20 -12 0 -30 9 -40 20 -10 11 -28 20 -39 20 -12 0 -34 9
-51 20 -16 11 -39 20 -50 20 -11 0 -33 9 -50 20 -16 11 -42 20 -56 20 -14 0
-34 9 -44 20 -11 12 -31 20 -51 20 -19 0 -48 9 -66 20 -18 11 -45 20 -60 20
-15 0 -50 9 -78 20 -28 11 -65 20 -83 20 -18 0 -52 9 -76 20 -24 11 -64 20
-90 20 -25 1 -64 9 -86 20 -29 14 -63 20 -125 20 -103 1 -183 13 -188 29 -3 8
-69 11 -221 11 -181 0 -219 -3 -231 -15z"/>
    <path d="M3310 9120 c-36 -4 -78 -15 -95 -24 -17 -9 -54 -16 -85 -16 -39 0
-62 -6 -80 -20 -14 -11 -41 -20 -60 -20 -19 0 -53 -9 -75 -20 -22 -11 -53 -19
-70 -20 -16 0 -45 -9 -63 -20 -18 -11 -46 -20 -63 -20 -17 0 -42 -9 -56 -20
-14 -11 -39 -20 -55 -20 -17 0 -41 -9 -55 -20 -14 -11 -35 -20 -47 -20 -11 0
-34 -9 -51 -20 -16 -11 -39 -20 -50 -20 -11 0 -33 -9 -50 -20 -16 -11 -37 -20
-46 -20 -9 0 -24 -9 -34 -20 -10 -11 -28 -20 -40 -20 -12 0 -32 -9 -45 -20
-13 -11 -29 -20 -36 -20 -14 0 -87 -37 -125 -63 -13 -10 -31 -17 -40 -17 -9 0
-22 -7 -29 -16 -8 -8 -27 -22 -44 -30 -17 -7 -44 -23 -61 -34 -16 -11 -45 -27
-62 -35 -18 -8 -33 -20 -33 -25 0 -6 -8 -14 -17 -17 -10 -4 -29 -14 -43 -23
-14 -9 -45 -30 -70 -45 -25 -16 -74 -52 -110 -80 -36 -27 -83 -62 -105 -77
-22 -15 -62 -48 -90 -74 -27 -25 -87 -78 -133 -116 -45 -39 -82 -77 -82 -84 0
-22 29 -28 48 -11 29 26 154 107 165 107 6 0 19 7 29 17 19 17 45 33 88 55 14
7 36 20 49 30 13 10 32 18 42 18 10 0 23 9 29 20 6 11 19 20 29 20 10 0 29 8
42 18 13 10 35 23 49 30 14 6 32 16 40 21 8 5 26 14 40 20 25 11 35 16 75 39
11 7 31 17 45 23 14 6 41 20 61 30 20 11 43 19 52 19 8 0 26 9 40 20 14 11 36
20 50 20 13 0 32 9 42 20 10 11 28 20 39 20 12 0 35 9 51 20 17 11 38 20 48
20 9 0 34 9 54 20 21 11 47 20 58 20 11 0 34 9 50 20 17 11 41 20 53 20 13 0
35 9 49 20 14 11 39 20 54 20 16 0 46 9 66 20 21 11 51 20 68 20 17 0 47 9 68
20 20 11 52 20 69 20 18 0 47 9 63 20 18 12 47 20 71 20 22 0 67 9 99 20 32
11 74 20 94 20 20 0 65 9 101 20 36 11 79 20 97 20 23 0 47 12 85 43 46 38 53
48 56 84 3 35 -2 45 -33 76 -21 21 -44 37 -53 37 -10 0 -26 2 -37 4 -11 2 -49
0 -85 -4z"/>
    <path d="M4095 8520 c-134 -4 -191 -10 -224 -23 -30 -12 -73 -17 -135 -17 -61
0 -114 -7 -161 -20 -38 -11 -92 -20 -118 -20 -28 0 -64 -8 -87 -20 -25 -13
-59 -20 -96 -20 -41 0 -63 -5 -81 -20 -15 -12 -41 -20 -62 -20 -20 0 -54 -9
-76 -20 -22 -11 -54 -20 -73 -20 -18 0 -50 -9 -72 -20 -22 -11 -53 -20 -69
-20 -20 0 -34 -7 -41 -20 -8 -15 -21 -20 -49 -20 -23 0 -48 -8 -64 -20 -14
-11 -37 -20 -52 -20 -15 0 -38 -9 -52 -20 -14 -11 -36 -20 -48 -20 -12 0 -32
-9 -45 -20 -13 -11 -35 -20 -49 -20 -15 0 -31 -8 -39 -20 -7 -11 -23 -20 -36
-20 -12 0 -33 -9 -46 -20 -13 -11 -33 -20 -45 -20 -12 0 -30 -9 -40 -20 -10
-11 -25 -20 -33 -20 -9 0 -23 -7 -32 -15 -8 -8 -42 -28 -75 -46 -32 -17 -65
-37 -72 -45 -8 -8 -20 -14 -27 -14 -8 0 -19 -7 -26 -16 -8 -8 -27 -22 -44 -30
-45 -21 -73 -39 -94 -57 -10 -10 -21 -17 -25 -17 -11 0 -70 -44 -112 -83 -22
-20 -45 -37 -51 -37 -13 0 -54 -34 -197 -165 -55 -49 -129 -115 -166 -146 -36
-30 -116 -114 -178 -185 -61 -71 -130 -149 -152 -172 -58 -61 -111 -127 -111
-138 0 -5 -25 -36 -55 -69 -30 -33 -58 -69 -61 -80 -4 -11 -16 -32 -28 -46
-25 -31 -43 -57 -59 -86 -7 -12 -27 -42 -45 -68 -17 -25 -32 -52 -32 -59 0 -7
-9 -21 -20 -31 -11 -10 -20 -26 -20 -35 0 -10 -7 -23 -16 -30 -8 -8 -22 -27
-29 -44 -8 -17 -28 -53 -44 -81 -16 -27 -30 -56 -30 -63 -1 -8 -10 -25 -21
-39 -11 -14 -20 -38 -20 -53 0 -15 -9 -35 -20 -45 -11 -10 -20 -28 -20 -40 0
-12 -9 -30 -20 -40 -11 -10 -20 -30 -20 -44 0 -14 -9 -39 -20 -56 -11 -16 -20
-43 -20 -58 0 -16 -9 -40 -20 -54 -11 -15 -20 -41 -20 -60 0 -20 -9 -46 -20
-60 -12 -16 -20 -41 -20 -64 0 -21 -9 -53 -20 -71 -12 -21 -20 -51 -20 -79 0
-26 -9 -66 -20 -90 -13 -30 -20 -66 -20 -111 0 -43 -7 -85 -20 -118 -15 -39
-20 -74 -20 -154 0 -66 -6 -120 -16 -152 -11 -35 -17 -107 -21 -254 -5 -192
-4 -208 14 -245 16 -32 21 -67 26 -175 3 -91 10 -147 21 -172 9 -21 16 -64 16
-96 0 -33 9 -85 20 -117 11 -32 20 -74 20 -94 0 -20 9 -53 20 -74 11 -20 20
-50 20 -66 0 -15 9 -40 20 -54 11 -14 20 -37 20 -51 0 -15 9 -44 20 -66 11
-22 20 -46 20 -54 0 -9 9 -30 20 -48 11 -18 20 -40 20 -48 0 -8 9 -26 20 -40
11 -14 20 -31 20 -38 0 -8 9 -25 20 -39 11 -14 20 -32 20 -40 0 -8 9 -26 20
-40 11 -14 20 -36 20 -48 0 -12 9 -34 20 -48 11 -14 20 -36 20 -49 0 -13 9
-31 20 -41 11 -9 20 -28 20 -42 0 -13 9 -39 20 -57 11 -18 20 -42 20 -53 0
-11 8 -36 18 -55 11 -19 22 -60 25 -91 3 -31 12 -71 21 -87 13 -25 16 -66 16
-210 0 -158 -2 -185 -20 -223 -11 -24 -20 -64 -20 -89 0 -25 -9 -65 -20 -89
-11 -24 -20 -54 -20 -67 0 -13 -9 -41 -20 -61 -11 -21 -20 -46 -20 -56 0 -10
-9 -30 -20 -44 -11 -14 -20 -35 -20 -45 0 -11 -9 -31 -20 -45 -11 -14 -20 -35
-20 -45 0 -11 -9 -31 -20 -45 -11 -14 -20 -31 -20 -38 0 -6 -9 -20 -20 -30
-11 -10 -20 -28 -20 -40 0 -13 -7 -28 -16 -35 -8 -8 -22 -27 -29 -44 -25 -52
-76 -140 -99 -166 -11 -14 -28 -41 -37 -60 -74 -155 -77 -188 -23 -270 47 -72
85 -101 148 -114 99 -20 383 -5 435 23 12 7 52 17 88 22 35 5 77 16 93 24 16
8 44 15 63 15 21 0 41 7 52 20 12 13 31 20 57 20 21 0 55 9 75 20 21 11 49 20
63 20 14 0 42 9 63 20 20 11 49 20 64 20 16 0 42 9 58 20 18 12 47 20 71 20
25 0 51 7 65 18 13 11 50 22 83 26 32 3 68 12 80 18 32 18 702 18 734 0 13 -7
55 -16 95 -18 40 -3 93 -14 119 -25 31 -12 71 -19 116 -19 48 0 83 -6 113 -20
25 -11 66 -20 94 -20 28 0 86 -9 130 -20 55 -14 115 -20 194 -21 72 0 129 -5
155 -14 53 -19 465 -21 499 -3 13 6 99 15 203 19 115 5 200 13 234 23 30 9 81
16 114 16 39 1 75 8 101 20 25 12 62 19 96 20 41 0 63 6 82 20 17 14 41 20 74
20 26 1 66 9 88 20 22 11 54 19 70 20 17 0 47 9 68 20 20 11 50 20 66 20 15 0
40 9 54 20 14 11 38 20 54 20 15 0 42 9 58 20 17 11 39 20 50 20 11 0 34 9 50
20 17 11 40 20 51 20 12 0 33 9 47 20 14 11 33 20 42 20 9 0 28 9 42 20 14 11
33 20 43 20 9 0 27 9 40 20 13 11 29 20 36 20 16 0 102 45 124 65 9 8 24 15
33 15 9 0 18 4 21 9 4 5 37 26 74 47 37 21 73 44 80 51 7 7 22 13 32 13 11 0
23 7 28 16 4 8 31 29 59 47 67 42 165 109 179 122 6 5 26 21 44 35 18 14 38
30 44 35 6 6 37 29 68 53 32 23 71 55 86 70 16 15 59 52 97 82 80 66 425 401
425 414 0 10 42 60 138 162 34 37 62 72 62 76 0 5 33 50 73 101 40 51 81 103
90 117 9 14 30 44 47 68 16 23 30 46 30 49 0 4 7 15 17 25 18 21 36 49 57 94
8 17 22 36 30 44 9 7 16 21 16 31 0 10 5 21 11 25 6 3 19 25 30 48 11 22 42
83 69 135 28 51 50 99 50 106 0 6 9 22 20 35 11 13 20 36 20 51 0 18 7 32 20
39 12 7 20 21 20 38 0 15 9 41 20 57 11 17 20 38 20 48 0 9 9 34 20 54 11 21
20 51 20 66 0 16 9 40 20 54 12 16 20 41 20 65 0 25 8 50 20 65 12 16 20 41
20 65 0 21 7 52 15 69 9 16 20 66 25 109 5 44 15 90 22 102 7 13 15 69 19 125
4 80 10 107 24 123 17 19 18 48 18 460 0 394 -2 442 -17 465 -11 17 -19 57
-23 123 -3 57 -14 117 -24 145 -11 26 -19 62 -19 80 -1 18 -9 57 -20 87 -11
30 -20 71 -20 90 0 19 -9 49 -20 65 -11 17 -20 44 -20 61 0 17 -9 43 -20 57
-11 14 -20 38 -20 54 0 15 -9 42 -20 58 -11 17 -20 38 -20 48 0 10 -9 35 -20
57 -11 22 -20 47 -20 56 0 9 -9 27 -20 41 -11 14 -20 33 -20 43 0 10 -9 29
-20 43 -11 14 -20 32 -20 40 0 8 -9 26 -20 40 -11 14 -20 34 -20 45 0 10 -9
27 -20 37 -11 10 -20 24 -20 32 0 8 -9 27 -20 43 -11 17 -29 43 -40 60 -11 16
-20 34 -20 39 0 5 -6 16 -14 23 -7 8 -22 29 -32 47 -32 57 -38 66 -76 112 -21
26 -38 50 -38 55 0 5 -23 34 -51 64 -28 30 -61 71 -73 90 -36 54 -261 285
-345 353 -42 34 -98 80 -125 104 -48 43 -132 103 -143 103 -3 0 -16 10 -28 23
-30 30 -67 57 -78 57 -5 0 -22 10 -37 23 -59 46 -74 57 -86 57 -6 0 -17 7 -24
16 -8 8 -27 21 -44 29 -42 19 -148 78 -177 99 -13 9 -31 16 -40 16 -9 0 -26 9
-39 20 -13 11 -31 20 -40 20 -9 0 -25 9 -35 20 -10 11 -28 20 -39 20 -12 0
-29 9 -39 20 -9 11 -29 20 -46 20 -15 0 -40 9 -54 20 -14 11 -36 20 -50 20
-13 0 -36 9 -50 20 -14 11 -38 20 -55 20 -16 0 -41 9 -55 20 -16 13 -40 20
-70 20 -31 0 -49 6 -62 20 -13 14 -31 20 -62 20 -24 0 -61 9 -83 20 -24 12
-59 20 -90 20 -28 0 -76 9 -107 20 -42 14 -83 20 -150 20 -66 0 -106 5 -140
19 -42 16 -87 19 -368 23 -176 2 -401 2 -500 -2z"/>
    <path d="M6943 1403 c-39 -32 -113 -91 -164 -131 -52 -40 -129 -99 -171 -132
-43 -33 -81 -60 -85 -61 -5 0 -28 -16 -53 -35 -25 -18 -56 -39 -70 -45 -13 -5
-43 -26 -66 -45 -23 -19 -49 -34 -57 -34 -8 0 -20 -7 -27 -16 -8 -8 -27 -22
-44 -30 -45 -21 -73 -39 -94 -57 -10 -10 -25 -17 -34 -17 -8 0 -23 -9 -33 -20
-10 -11 -26 -20 -35 -20 -10 0 -28 -8 -41 -19 -13 -10 -34 -21 -46 -25 -11 -4
-27 -13 -33 -21 -7 -8 -19 -15 -27 -15 -8 0 -26 -9 -40 -20 -14 -11 -32 -20
-40 -20 -8 0 -26 -9 -40 -20 -14 -11 -33 -20 -43 -20 -10 0 -29 -9 -43 -20
-14 -11 -36 -20 -50 -20 -13 0 -32 -9 -42 -20 -10 -11 -30 -20 -45 -20 -15 0
-35 -9 -45 -20 -10 -11 -30 -20 -44 -20 -14 0 -39 -9 -56 -20 -16 -11 -39 -20
-51 -20 -12 0 -43 -22 -73 -51 -45 -46 -51 -57 -51 -94 0 -47 35 -89 86 -104
39 -11 179 11 202 33 10 9 27 16 36 16 10 0 29 9 43 20 14 11 33 20 43 20 9 0
27 9 40 20 13 11 29 20 36 20 20 0 108 49 117 65 4 8 12 15 18 15 15 0 122 64
213 128 26 17 50 32 53 32 3 0 18 10 33 23 58 46 74 57 85 57 5 0 28 17 50 38
47 44 122 105 149 119 20 11 241 218 319 298 26 28 88 91 136 140 114 115 171
185 171 207 0 10 -4 18 -8 18 -4 0 -40 -26 -79 -57z"/>
  </g>
  <g transform="translate(0,928.0) scale(0.1,-0.1)" fill="#ffffff" stroke="none">
    <path d="M5545 7452 c-16 -8 -35 -18 -41 -21 -6 -3 -31 -19 -55 -36 -48 -32
-92 -58 -125 -73 -11 -6 -58 -35 -103 -66 -45 -31 -85 -56 -88 -56 -11 0 -87
-54 -96 -67 -4 -7 -14 -13 -22 -13 -7 0 -36 -18 -64 -40 -28 -22 -55 -40 -60
-40 -5 0 -31 -17 -58 -38 -26 -21 -73 -54 -103 -75 -77 -52 -127 -89 -265
-192 -66 -50 -140 -103 -165 -120 -25 -16 -57 -41 -70 -53 -14 -13 -45 -38
-70 -55 -38 -26 -221 -168 -270 -210 -9 -7 -54 -43 -100 -80 -47 -37 -103 -83
-125 -101 -22 -19 -51 -44 -65 -55 -14 -12 -61 -51 -105 -87 -44 -37 -96 -80
-115 -98 -19 -17 -72 -61 -118 -99 -45 -37 -90 -75 -100 -85 -10 -9 -70 -65
-133 -123 -353 -327 -428 -398 -531 -505 -179 -186 -266 -280 -491 -527 -42
-46 -100 -128 -134 -190 -18 -31 -23 -56 -23 -108 0 -67 0 -67 47 -113 36 -35
54 -46 78 -46 18 0 44 -9 58 -20 24 -19 40 -20 281 -20 226 0 263 2 313 19 47
16 96 20 263 24 145 4 217 9 245 20 25 9 101 17 207 21 91 4 181 11 200 17 18
6 143 14 278 19 135 5 263 13 285 18 22 6 123 12 225 14 171 3 185 2 188 -15
4 -20 -41 -75 -163 -202 -42 -44 -104 -114 -138 -155 -34 -41 -111 -131 -172
-200 -61 -69 -118 -136 -127 -150 -8 -14 -45 -57 -82 -96 -36 -39 -89 -100
-117 -135 -28 -35 -74 -89 -102 -119 -28 -30 -82 -93 -120 -140 -38 -47 -110
-129 -160 -183 -50 -54 -104 -117 -121 -140 -38 -52 -69 -87 -170 -194 -43
-45 -93 -102 -110 -125 -36 -50 -65 -83 -163 -190 -70 -76 -123 -164 -123
-205 0 -11 10 -29 23 -41 20 -19 35 -22 104 -22 65 0 85 4 106 20 14 11 32 20
40 20 7 0 22 9 32 20 10 11 28 20 40 20 13 0 29 7 36 17 8 9 28 22 44 30 45
21 73 38 93 56 10 10 26 17 34 17 9 0 22 7 29 17 8 9 28 22 44 30 17 7 44 23
60 33 17 11 44 27 60 35 17 9 50 31 75 50 25 18 51 34 58 34 7 1 20 10 29 21
10 11 23 20 29 20 7 0 34 17 61 38 53 41 80 60 187 127 26 17 73 49 103 72 31
24 59 43 63 43 5 0 31 18 59 40 28 22 53 40 57 40 3 0 20 11 38 25 17 14 36
29 42 34 5 4 21 14 35 21 13 7 54 36 91 64 37 28 83 62 102 76 20 14 51 38 69
54 17 15 46 34 62 41 17 7 47 29 67 49 20 20 41 36 47 36 5 0 43 26 83 58 41
33 79 61 84 63 10 4 76 54 244 186 44 34 92 70 107 80 16 9 48 35 73 58 25 22
72 61 105 85 32 25 67 52 76 60 71 66 107 96 199 170 58 47 240 219 405 383
285 282 395 403 395 431 0 7 9 21 20 31 11 10 20 26 20 35 0 9 9 25 20 35 16
15 20 31 20 86 0 62 -3 72 -31 103 -37 43 -140 96 -186 96 -19 0 -48 8 -66 17
-25 13 -76 18 -232 25 -110 4 -225 12 -255 18 -30 5 -210 15 -400 20 -190 6
-358 15 -373 20 -15 5 -130 12 -255 16 -130 4 -230 11 -233 17 -8 11 34 99 56
117 8 7 15 17 15 22 0 14 89 165 105 178 8 7 15 23 15 36 0 13 6 27 14 31 13
8 71 105 99 168 8 17 21 36 30 44 10 7 17 20 17 28 0 7 8 26 18 41 31 47 42
66 57 100 9 17 19 32 24 32 5 0 12 13 16 29 3 16 15 37 26 47 10 9 19 25 19
34 0 9 9 25 20 35 11 10 20 25 20 32 0 8 9 26 20 40 11 14 20 31 20 37 0 6 9
19 20 29 11 9 20 24 20 32 0 9 8 28 18 43 29 44 41 65 62 107 11 22 29 54 40
70 11 17 25 41 32 55 7 14 20 36 30 49 10 13 18 31 18 40 0 9 9 24 20 34 11 9
20 28 20 41 0 14 7 29 15 33 14 8 62 90 100 171 8 17 19 32 24 32 6 0 13 9 16
21 7 21 40 74 70 114 8 10 15 27 15 37 0 9 6 21 13 25 20 13 56 69 63 99 4 16
13 38 20 49 24 34 17 83 -17 126 -26 33 -36 39 -67 38 -21 0 -50 -8 -67 -17z"/>
  </g>
  <g transform="translate(0,928.0) scale(0.1,-0.1)" fill="#17181c" stroke="none">
    <path d="M18193 8005 c-23 -10 -33 -21 -33 -35 0 -12 -9 -33 -20 -47 -12 -16
-20 -41 -20 -64 0 -22 -9 -56 -20 -76 -11 -21 -20 -52 -20 -70 0 -18 -9 -55
-20 -83 -11 -28 -20 -63 -20 -78 0 -15 -9 -44 -20 -65 -11 -21 -20 -56 -20
-81 0 -28 -7 -52 -20 -69 -13 -16 -20 -40 -20 -69 0 -24 -7 -53 -15 -64 -8
-12 -19 -52 -25 -89 -6 -37 -17 -80 -25 -96 -8 -15 -15 -46 -15 -67 0 -24 -8
-49 -20 -65 -13 -16 -20 -40 -20 -66 0 -23 -9 -58 -20 -78 -11 -21 -20 -49
-20 -64 0 -14 -9 -52 -20 -84 -11 -32 -20 -72 -20 -89 0 -17 -9 -44 -20 -61
-11 -17 -20 -47 -20 -70 0 -23 -9 -53 -20 -70 -11 -17 -20 -47 -20 -70 0 -22
-9 -58 -20 -80 -11 -22 -20 -58 -20 -80 0 -22 -9 -58 -20 -80 -11 -22 -19 -59
-20 -81 0 -26 -8 -51 -20 -67 -13 -16 -20 -40 -20 -66 0 -23 -9 -58 -20 -78
-11 -21 -20 -54 -20 -73 0 -19 -9 -55 -20 -79 -11 -24 -20 -59 -20 -77 0 -19
-9 -52 -20 -74 -11 -22 -20 -56 -20 -76 0 -21 -8 -46 -20 -61 -13 -16 -20 -41
-20 -67 0 -22 -7 -54 -15 -70 -8 -15 -19 -54 -24 -86 -5 -32 -17 -72 -25 -89
-9 -16 -16 -49 -16 -73 0 -26 -8 -55 -20 -73 -11 -17 -20 -47 -20 -70 0 -23
-9 -53 -20 -70 -24 -36 -27 -117 -5 -135 11 -9 191 -12 762 -12 676 -1 752 1
788 16 21 9 75 20 120 25 44 4 95 15 112 25 18 9 47 16 66 16 21 0 41 7 52 20
10 11 29 20 42 20 14 0 36 9 50 20 14 11 32 20 39 20 16 0 102 45 124 65 9 8
21 15 27 15 6 0 56 33 110 74 111 84 251 224 306 308 21 31 44 62 52 68 8 7
15 20 15 30 0 10 7 23 15 30 18 15 65 95 65 110 0 7 9 23 20 37 11 14 20 36
20 48 0 12 9 34 20 48 11 14 20 37 20 52 0 15 9 38 20 52 12 16 20 41 20 65 0
21 7 53 16 69 17 34 46 267 46 369 0 104 -22 261 -43 309 -10 24 -19 54 -19
67 0 12 -5 26 -11 30 -6 3 -19 25 -30 48 -11 22 -27 53 -35 69 -19 35 -182
197 -198 197 -7 0 -21 7 -31 15 -52 40 -98 65 -118 65 -12 0 -35 9 -52 20 -17
12 -47 20 -70 20 -22 0 -52 8 -65 18 -21 14 -52 18 -185 20 -144 3 -165 2
-213 -17 -29 -12 -67 -21 -85 -21 -18 0 -52 -9 -76 -20 -24 -11 -51 -20 -61
-20 -9 0 -27 -9 -40 -20 -13 -11 -31 -20 -41 -20 -10 0 -24 -6 -31 -12 -40
-39 -101 -71 -135 -72 l-38 -1 -3 46 c-2 29 5 65 18 98 11 28 20 66 20 84 0
18 9 46 20 62 12 19 20 47 20 75 0 28 8 56 20 75 11 17 20 45 20 63 0 18 7 47
16 64 9 17 20 60 25 95 5 36 16 74 24 86 8 12 15 40 15 62 0 23 8 53 20 70 11
17 20 47 20 67 0 21 9 54 19 75 12 24 21 64 23 108 3 65 2 70 -22 82 -38 19
-622 18 -667 -2z m932 -1632 c105 -19 141 -41 208 -121 15 -19 27 -44 27 -58
0 -13 9 -38 20 -56 29 -48 29 -217 0 -271 -11 -20 -20 -53 -20 -72 0 -19 -9
-52 -20 -72 -11 -21 -20 -49 -20 -63 0 -14 -7 -36 -17 -49 -9 -13 -27 -44 -40
-70 -14 -25 -33 -55 -42 -66 -10 -11 -24 -31 -33 -45 -28 -44 -117 -137 -161
-166 -23 -16 -64 -46 -90 -66 -27 -21 -58 -38 -69 -38 -11 0 -31 -9 -45 -20
-14 -11 -32 -20 -40 -20 -7 0 -30 -8 -51 -19 -20 -10 -68 -21 -107 -24 -38 -3
-87 -13 -107 -21 -28 -12 -73 -16 -178 -16 -134 0 -142 1 -190 28 -59 32 -66
46 -45 95 8 20 15 55 15 78 0 26 7 50 20 66 11 14 20 40 20 58 0 18 9 52 20
76 11 24 20 54 20 67 0 12 9 40 20 62 11 22 20 50 20 63 0 13 9 32 20 42 11
10 20 31 20 47 0 17 9 41 20 55 11 14 20 33 20 43 0 10 9 29 20 43 11 14 20
32 20 40 0 8 8 25 18 38 10 13 21 32 25 42 3 9 10 17 15 17 5 0 27 27 48 61
20 33 64 85 97 115 69 62 187 144 208 144 8 0 28 9 44 20 17 11 46 20 65 20
19 1 60 7 90 15 30 7 57 14 60 14 3 1 46 -6 95 -16z"/>
    <path d="M11840 7980 c-1152 -4 -1460 -8 -1477 -18 -27 -15 -43 -43 -43 -75 0
-13 -9 -32 -20 -42 -13 -12 -20 -31 -20 -57 0 -21 -7 -52 -15 -68 -8 -16 -19
-58 -24 -93 -5 -35 -16 -78 -25 -95 -9 -17 -16 -48 -16 -68 0 -20 -9 -52 -21
-70 -15 -25 -19 -46 -17 -91 l3 -58 548 -5 c634 -6 580 4 570 -109 -3 -36 -14
-82 -25 -101 -10 -19 -18 -51 -18 -70 -1 -19 -9 -53 -20 -75 -11 -22 -19 -60
-20 -85 0 -27 -8 -58 -20 -78 -11 -18 -20 -50 -20 -73 0 -26 -7 -50 -20 -66
-12 -15 -20 -41 -20 -63 0 -21 -9 -57 -20 -81 -11 -24 -20 -60 -20 -79 0 -19
-9 -55 -20 -79 -11 -24 -20 -62 -20 -86 0 -27 -7 -51 -20 -68 -12 -15 -20 -40
-20 -64 0 -21 -9 -51 -20 -68 -11 -16 -20 -47 -20 -67 0 -21 -9 -60 -20 -88
-11 -28 -20 -65 -20 -83 0 -18 -9 -49 -20 -70 -11 -20 -20 -55 -20 -78 0 -26
-7 -50 -20 -66 -12 -16 -20 -41 -20 -65 0 -21 -9 -56 -20 -78 -11 -22 -20 -53
-20 -70 0 -17 -9 -56 -20 -87 -11 -32 -20 -71 -20 -88 0 -16 -9 -43 -20 -60
-12 -18 -20 -47 -20 -73 0 -23 -9 -59 -20 -79 -11 -21 -20 -52 -20 -69 0 -18
-9 -51 -20 -75 -11 -24 -20 -60 -20 -79 0 -19 -9 -53 -21 -74 -13 -25 -19 -52
-17 -79 l3 -42 392 -3 393 -2 14 34 c8 18 19 37 25 40 6 4 11 27 11 52 0 25 9
60 20 81 11 21 20 52 20 70 0 18 9 55 20 83 11 28 20 65 20 83 0 18 9 47 20
65 12 20 20 50 20 77 0 27 8 57 20 77 11 18 20 47 20 64 0 18 9 51 20 75 11
24 20 60 20 79 0 19 9 55 20 79 11 24 20 60 20 81 0 22 8 48 20 63 12 15 20
40 20 62 0 20 7 49 15 64 8 16 19 56 24 89 5 34 15 71 21 82 7 12 16 49 20 82
5 33 16 68 24 77 9 10 16 36 16 61 0 26 7 51 16 61 9 10 19 44 24 76 4 32 15
75 24 95 9 21 16 52 16 70 0 18 9 53 20 77 11 24 20 61 20 83 0 25 8 50 20 65
13 16 20 41 20 67 0 24 8 53 20 71 12 19 20 47 20 75 0 25 9 65 20 89 11 24
20 57 20 75 0 17 9 45 20 61 11 17 20 42 20 56 0 18 11 35 34 53 l34 26 538 2
c465 3 538 5 545 18 24 45 40 92 49 143 5 31 16 67 24 79 9 13 16 43 16 69 0
31 7 55 20 72 11 14 20 40 20 60 0 19 8 54 19 78 10 24 22 76 25 115 8 87 -2
100 -89 106 -33 2 -715 1 -1515 -2z"/>
    <path d="M17355 6983 c-22 -8 -65 -18 -95 -22 -30 -4 -69 -15 -87 -24 -18 -9
-40 -17 -50 -17 -10 0 -43 -13 -73 -30 -30 -16 -70 -37 -89 -46 -19 -8 -40
-22 -48 -30 -8 -8 -18 -14 -23 -14 -4 0 -34 -20 -65 -45 -68 -52 -87 -60 -114
-46 -30 17 -34 46 -11 90 26 51 27 122 2 144 -16 15 -53 17 -313 17 l-294 0
-28 -25 c-15 -14 -27 -35 -27 -46 0 -12 -9 -32 -20 -46 -12 -16 -20 -41 -20
-64 0 -21 -9 -61 -20 -89 -11 -28 -20 -63 -20 -78 0 -15 -9 -47 -20 -71 -11
-24 -20 -61 -20 -83 0 -25 -8 -50 -20 -65 -12 -16 -20 -41 -20 -64 0 -22 -9
-56 -20 -76 -11 -21 -20 -50 -20 -66 0 -15 -9 -53 -20 -84 -11 -32 -20 -71
-20 -88 0 -17 -9 -47 -20 -68 -11 -20 -20 -56 -20 -79 0 -26 -8 -55 -20 -73
-11 -16 -20 -45 -20 -63 0 -18 -7 -47 -16 -64 -9 -17 -20 -60 -25 -95 -5 -36
-16 -74 -24 -86 -8 -12 -15 -40 -15 -63 0 -27 -7 -49 -20 -64 -13 -15 -20 -37
-20 -67 0 -24 -9 -59 -20 -80 -11 -21 -20 -54 -20 -73 0 -19 -9 -55 -20 -79
-11 -24 -20 -60 -20 -80 0 -20 -9 -53 -20 -74 -11 -20 -20 -53 -20 -73 0 -20
-9 -48 -19 -63 -11 -15 -21 -50 -23 -81 -3 -30 -11 -69 -18 -86 -12 -28 -11
-35 3 -58 l17 -26 348 0 c355 0 372 2 372 38 0 8 9 25 20 39 13 17 20 41 20
68 0 24 9 62 20 86 11 24 20 62 20 84 0 22 9 57 20 78 11 20 20 55 20 78 0 26
7 50 20 66 13 17 20 41 20 72 0 29 7 57 20 76 11 17 20 41 20 55 0 14 9 54 20
88 11 35 20 76 20 91 0 14 9 43 20 64 11 20 20 56 20 79 0 26 8 55 20 73 11
17 20 43 20 58 0 15 9 45 19 65 11 20 24 48 30 62 6 14 15 32 20 40 5 8 14 26
20 40 7 14 18 36 26 50 22 39 185 190 204 190 10 0 26 9 36 20 10 11 24 20 31
20 7 0 30 9 51 19 21 11 58 22 83 26 25 4 57 14 72 21 19 10 67 14 165 14
l137 0 33 37 c26 29 33 46 33 77 0 24 8 53 20 71 11 17 20 44 20 62 0 18 9 55
20 83 11 28 20 67 20 86 0 19 9 52 20 74 11 22 20 54 20 72 0 18 9 47 20 63
24 36 25 58 4 79 -21 22 -173 21 -229 -1z"/>
    <path d="M21591 6983 c-13 -9 -54 -20 -90 -24 -69 -7 -141 -29 -203 -60 -20
-11 -48 -19 -62 -19 -15 0 -30 -8 -36 -20 -6 -11 -21 -20 -35 -20 -13 0 -30
-6 -38 -14 -8 -8 -29 -21 -48 -30 -68 -31 -197 -133 -296 -235 -57 -58 -103
-108 -103 -112 0 -11 -49 -82 -62 -90 -10 -6 -26 -32 -50 -79 -7 -14 -20 -36
-30 -49 -10 -13 -18 -31 -18 -41 0 -9 -9 -25 -20 -35 -11 -10 -20 -30 -20 -45
0 -15 -7 -33 -15 -40 -8 -7 -17 -28 -21 -49 -4 -20 -15 -50 -25 -67 -11 -18
-19 -50 -19 -75 0 -26 -7 -55 -17 -69 -44 -62 -45 -523 -2 -579 11 -13 19 -39
19 -58 0 -19 8 -51 19 -71 57 -113 76 -148 88 -160 7 -7 13 -20 13 -28 0 -31
264 -274 299 -274 4 0 16 -9 26 -20 10 -11 28 -20 40 -20 12 0 30 -9 40 -20
10 -11 29 -20 42 -20 13 0 43 -10 66 -22 42 -23 46 -23 452 -23 406 0 410 0
452 22 23 13 53 23 65 23 13 0 37 9 53 20 17 11 42 20 56 20 14 0 34 9 44 20
10 11 26 20 35 20 10 0 29 9 43 20 14 11 30 20 36 20 28 0 191 133 292 237 66
68 102 110 182 214 9 13 17 30 17 39 0 10 9 25 20 35 11 10 20 26 20 35 0 9 9
25 20 35 11 10 20 28 20 40 0 12 9 32 20 45 11 13 20 32 20 42 0 11 9 31 20
45 11 14 20 39 20 55 0 16 9 46 20 68 11 22 20 59 20 82 0 24 9 63 20 87 18
38 20 65 20 228 0 141 -3 191 -14 212 -8 15 -18 52 -22 82 -3 30 -15 68 -25
85 -11 17 -19 40 -19 51 0 11 -9 28 -20 38 -11 10 -20 28 -20 40 0 12 -9 30
-20 40 -11 10 -20 22 -20 26 0 35 -173 225 -233 255 -17 9 -34 20 -37 24 -8
12 -180 100 -195 100 -8 0 -32 9 -52 20 -21 11 -54 20 -73 20 -19 0 -55 9 -79
20 -39 18 -65 20 -300 20 -223 0 -260 -2 -280 -17z m350 -617 c76 -16 126 -45
193 -112 61 -61 94 -114 105 -167 5 -23 14 -64 19 -92 6 -27 13 -57 16 -65 4
-8 -3 -58 -14 -109 -11 -52 -20 -108 -20 -124 0 -16 -9 -40 -20 -54 -11 -14
-20 -37 -20 -50 0 -14 -9 -36 -20 -50 -11 -14 -20 -31 -20 -38 0 -7 -7 -18
-16 -25 -8 -8 -21 -27 -28 -44 -22 -54 -255 -276 -288 -276 -5 0 -21 -9 -35
-20 -14 -11 -33 -20 -42 -20 -9 -1 -34 -9 -56 -20 -33 -16 -63 -19 -177 -20
-128 0 -140 2 -185 26 -97 51 -213 177 -213 230 0 11 -9 37 -21 58 -19 35 -21
53 -17 170 2 105 7 136 21 156 9 13 17 38 17 54 0 16 9 47 19 70 11 23 22 48
26 56 24 58 120 194 179 253 61 60 149 127 169 127 8 0 25 8 38 18 91 67 255
96 390 68z"/>
    <path d="M12972 6948 c-5 -7 -13 -23 -16 -35 -4 -11 -13 -27 -21 -33 -9 -7
-15 -30 -15 -55 0 -24 -9 -62 -20 -86 -11 -24 -20 -59 -20 -77 0 -18 -9 -50
-20 -72 -11 -22 -20 -56 -20 -77 0 -21 -9 -51 -20 -68 -12 -17 -20 -47 -20
-70 0 -22 -7 -50 -15 -61 -8 -12 -19 -52 -25 -89 -6 -37 -17 -80 -25 -96 -8
-15 -15 -43 -15 -61 0 -18 -9 -46 -20 -63 -12 -19 -20 -47 -20 -75 0 -28 -8
-56 -20 -75 -11 -16 -20 -44 -20 -62 0 -18 -9 -55 -20 -83 -11 -28 -20 -65
-20 -83 0 -18 -9 -49 -20 -70 -11 -20 -20 -54 -20 -74 0 -22 -9 -48 -20 -63
-14 -17 -20 -41 -20 -77 0 -29 -8 -72 -17 -95 -24 -58 -24 -210 0 -255 9 -18
17 -47 17 -66 0 -20 8 -44 20 -57 11 -13 20 -31 20 -40 0 -9 9 -27 20 -40 11
-13 20 -28 20 -34 0 -25 141 -146 187 -160 12 -4 27 -13 33 -21 7 -8 21 -15
31 -15 10 0 38 -10 61 -22 42 -23 50 -23 378 -23 325 0 337 1 388 23 29 12 63
22 75 22 12 0 39 9 60 20 20 11 45 20 56 20 10 0 30 9 44 20 14 11 32 20 40
20 8 0 26 9 40 20 14 11 32 20 40 20 7 0 22 9 32 20 10 11 23 20 28 20 6 0 21
9 33 20 14 14 37 22 65 23 l44 2 3 -49 c2 -38 -2 -56 -17 -77 -23 -31 -28 -88
-9 -107 9 -9 106 -12 374 -12 l362 0 22 37 c12 20 26 61 30 90 5 29 16 63 24
75 9 13 16 43 16 69 0 31 7 55 20 72 13 16 20 40 20 66 0 23 9 58 20 78 11 21
20 53 20 71 0 18 7 49 16 70 9 20 20 63 24 95 5 32 15 66 24 76 9 10 16 35 16
60 0 23 9 59 20 81 11 22 20 53 20 70 0 17 7 45 16 61 8 17 20 58 25 91 5 33
16 73 24 89 8 15 15 46 15 67 0 24 8 49 20 65 12 15 20 40 20 65 0 22 9 59 20
83 11 24 20 58 20 74 0 17 9 50 20 74 11 24 20 63 20 88 0 30 7 53 20 70 12
16 20 41 20 64 0 21 9 53 20 71 11 18 20 51 20 73 0 22 9 60 20 84 11 24 20
57 20 75 0 17 9 48 20 69 16 30 20 53 18 100 l-3 62 -366 3 -367 2 -31 -35
c-21 -24 -31 -46 -31 -68 0 -18 -9 -45 -20 -62 -11 -17 -20 -47 -20 -68 0 -21
-9 -55 -20 -77 -11 -22 -20 -54 -20 -72 0 -18 -9 -53 -20 -77 -11 -24 -20 -62
-20 -85 0 -23 -9 -55 -20 -74 -11 -18 -20 -48 -20 -68 0 -19 -9 -52 -20 -74
-11 -22 -20 -54 -20 -72 0 -19 -9 -59 -20 -91 -11 -31 -20 -71 -20 -89 0 -18
-9 -53 -20 -77 -11 -24 -20 -57 -20 -73 0 -16 -9 -41 -20 -55 -12 -15 -20 -41
-20 -63 0 -21 -6 -43 -14 -49 -8 -7 -18 -27 -21 -44 -14 -71 -60 -143 -151
-235 -51 -51 -108 -99 -126 -107 -19 -7 -40 -21 -48 -29 -7 -9 -25 -16 -40
-16 -15 0 -35 -9 -45 -20 -12 -14 -31 -20 -59 -20 -23 -1 -52 -7 -66 -15 -17
-10 -58 -14 -129 -15 -88 0 -109 3 -138 21 -61 38 -89 127 -62 196 6 15 15 58
20 95 5 38 15 81 24 97 8 17 15 50 15 74 0 29 7 53 20 70 13 16 20 40 20 69 0
24 7 53 15 64 8 12 19 49 24 83 5 33 17 71 25 83 9 13 16 43 16 69 0 31 7 55
20 72 12 15 20 40 20 64 0 21 9 51 20 68 11 17 20 45 20 63 0 18 9 58 20 89
11 32 20 69 20 83 0 14 9 42 20 63 11 21 20 56 20 81 0 28 7 52 20 69 13 16
20 40 20 66 0 23 9 58 20 78 26 48 25 55 -5 87 l-24 26 -484 0 c-376 0 -487
-3 -495 -12z"/>
    <path d="M21010 4321 c-47 -5 -102 -15 -122 -24 -21 -10 -54 -17 -75 -17 -21
0 -53 -9 -71 -20 -18 -11 -43 -20 -56 -20 -12 0 -31 -9 -41 -20 -10 -11 -24
-20 -31 -20 -7 0 -34 -15 -59 -32 -26 -18 -54 -38 -63 -43 -58 -35 -84 -57
-144 -119 -38 -39 -68 -73 -68 -77 0 -4 -17 -29 -37 -56 -42 -53 -58 -79 -85
-135 -10 -20 -22 -40 -28 -43 -5 -3 -10 -17 -10 -29 0 -13 -9 -35 -20 -49 -12
-15 -20 -40 -20 -64 0 -21 -9 -51 -20 -68 -11 -16 -20 -43 -20 -60 0 -16 -13
-55 -28 -85 -34 -68 -45 -71 -224 -68 -132 3 -138 2 -162 -21 -38 -36 -66
-101 -66 -153 0 -30 -7 -54 -20 -71 -12 -15 -20 -40 -20 -61 0 -20 -9 -54 -20
-76 -27 -52 -25 -71 8 -103 28 -27 29 -27 175 -27 132 0 147 -2 156 -18 14
-27 2 -132 -20 -168 -11 -18 -19 -50 -19 -75 0 -27 -8 -56 -20 -74 -11 -17
-20 -47 -20 -70 0 -22 -9 -58 -20 -80 -11 -22 -19 -58 -20 -80 0 -22 -9 -57
-20 -78 -11 -20 -20 -53 -20 -73 0 -21 -8 -47 -20 -61 -13 -16 -20 -41 -20
-67 0 -22 -7 -54 -15 -70 -8 -15 -19 -53 -24 -85 -5 -31 -17 -73 -25 -93 -9
-21 -16 -52 -16 -70 0 -18 -9 -46 -20 -63 -12 -19 -20 -47 -20 -75 0 -28 -8
-56 -20 -75 -11 -16 -20 -46 -20 -66 0 -20 -9 -56 -20 -80 -11 -24 -20 -61
-20 -82 0 -21 -9 -55 -20 -77 -30 -59 -27 -104 11 -130 23 -17 38 -20 62 -15
73 15 120 17 142 5 15 -8 37 -10 62 -5 51 9 127 9 184 0 31 -5 49 -4 53 4 4 6
31 11 60 11 29 0 59 6 68 13 29 23 58 84 58 121 0 20 7 51 16 67 8 17 20 57
25 89 5 32 16 71 24 86 8 16 15 46 15 67 0 24 8 49 20 64 14 18 20 41 20 76 0
31 6 57 15 67 9 10 20 41 25 71 4 30 16 71 24 91 9 21 16 54 16 75 0 21 9 55
20 76 11 20 20 53 20 73 0 21 8 47 20 61 13 17 20 41 20 68 0 24 9 62 20 86
11 24 20 60 20 79 0 19 9 52 20 73 11 21 20 56 20 81 0 28 7 52 20 69 12 14
20 40 20 61 0 20 9 53 20 73 11 21 20 45 20 55 0 9 12 29 27 43 l28 25 242 0
241 0 30 38 c21 27 31 51 34 90 3 29 12 60 22 70 9 11 16 36 16 61 0 28 7 52
20 68 25 33 29 153 5 173 -11 9 -81 12 -258 13 -134 0 -253 4 -265 8 -19 7
-22 16 -22 64 0 36 7 68 20 92 11 21 20 43 20 49 0 12 42 96 74 149 11 17 36
44 57 60 21 17 49 38 60 48 12 9 31 17 41 17 11 0 31 9 45 20 24 19 41 20 254
20 216 0 230 1 249 20 11 11 20 31 20 45 0 14 7 41 15 61 8 19 19 62 25 96 6
33 18 71 26 83 11 16 14 44 12 96 -3 72 -3 73 -33 81 -16 4 -55 14 -85 23 -65
18 -339 27 -470 16z"/>
    <path d="M19070 4215 c-14 -8 -42 -14 -62 -15 -96 -1 -288 -160 -288 -239 0
-13 -9 -34 -20 -48 -27 -34 -27 -108 0 -148 11 -16 20 -41 20 -54 0 -32 99
-151 126 -151 6 0 21 -9 34 -20 13 -12 37 -20 57 -20 19 0 51 -9 73 -20 22
-11 50 -20 63 -20 13 0 36 9 50 20 15 12 40 20 65 20 26 0 45 6 57 20 10 11
26 20 36 20 25 0 159 136 159 161 0 11 9 37 20 59 26 51 27 142 2 190 -11 19
-22 47 -26 62 -8 34 -100 128 -125 128 -10 0 -26 9 -36 20 -12 13 -31 20 -55
20 -20 0 -45 7 -56 15 -24 18 -62 18 -94 0z"/>
    <path d="M10500 4100 c-11 -11 -20 -27 -20 -35 0 -9 -9 -33 -20 -55 -11 -22
-20 -56 -20 -77 0 -21 -9 -51 -20 -68 -11 -16 -20 -47 -20 -67 0 -21 -9 -60
-20 -88 -11 -28 -20 -63 -20 -78 0 -15 -9 -44 -20 -65 -11 -21 -20 -56 -20
-81 0 -28 -7 -52 -20 -69 -12 -15 -20 -40 -20 -64 0 -21 -7 -51 -15 -67 -9
-16 -20 -57 -24 -90 -5 -34 -16 -74 -25 -91 -9 -16 -16 -46 -16 -66 0 -21 -8
-47 -20 -62 -13 -16 -20 -41 -20 -69 0 -23 -9 -63 -20 -87 -11 -24 -20 -56
-20 -71 0 -15 -9 -47 -20 -71 -11 -24 -20 -62 -20 -84 0 -22 -9 -55 -20 -73
-12 -19 -20 -50 -20 -75 0 -25 -8 -54 -20 -72 -11 -16 -20 -46 -20 -66 0 -20
-9 -56 -20 -80 -11 -24 -20 -56 -20 -71 0 -15 -9 -50 -20 -78 -11 -28 -20 -68
-20 -89 0 -23 -8 -48 -20 -64 -12 -14 -20 -40 -20 -61 0 -20 -9 -53 -20 -73
-11 -21 -20 -54 -20 -74 0 -20 -9 -56 -20 -80 -11 -24 -20 -57 -20 -74 0 -16
-9 -50 -20 -74 -11 -24 -20 -61 -20 -83 0 -25 -8 -50 -20 -65 -13 -17 -20 -41
-20 -68 0 -24 -9 -62 -20 -86 -11 -24 -20 -58 -20 -75 0 -18 -7 -55 -17 -83
-12 -39 -13 -55 -5 -63 14 -14 103 -30 160 -29 23 1 69 1 102 1 33 0 80 0 105
0 25 0 71 1 103 2 31 0 70 -3 85 -7 17 -5 45 -3 70 5 104 31 117 42 117 97 0
15 9 42 20 58 12 19 20 47 20 75 0 28 8 56 20 75 11 17 20 47 20 68 0 21 7 52
16 68 8 17 20 58 25 91 6 34 16 70 24 82 8 11 15 39 15 61 0 23 8 53 20 70 11
17 20 47 20 68 0 21 9 55 20 77 11 22 20 53 20 69 0 17 9 54 20 83 11 29 20
67 20 83 0 17 9 47 20 68 11 20 20 54 20 74 0 21 9 52 20 68 12 18 20 47 20
73 0 24 7 57 16 73 8 17 20 58 25 91 6 34 16 70 24 82 8 11 15 41 15 67 0 31
7 55 20 72 12 15 20 40 20 62 0 20 8 50 17 68 9 18 19 46 23 62 5 24 11 31 36
33 26 3 35 -3 57 -36 15 -21 27 -45 27 -54 0 -8 9 -27 20 -41 11 -14 20 -30
20 -37 0 -7 9 -23 20 -37 11 -14 20 -34 20 -44 0 -10 9 -23 20 -29 13 -7 20
-21 20 -39 0 -16 7 -34 15 -41 8 -6 17 -22 20 -33 9 -33 98 -210 112 -225 7
-7 13 -22 13 -31 0 -10 9 -30 20 -44 11 -14 20 -31 20 -39 0 -7 9 -26 20 -43
11 -16 20 -40 20 -52 0 -12 4 -24 9 -27 5 -4 33 -55 61 -114 29 -59 56 -114
60 -122 25 -43 110 -216 110 -223 0 -5 9 -20 20 -34 11 -14 20 -34 20 -44 0
-9 6 -24 13 -31 19 -19 107 -200 107 -219 0 -9 9 -24 20 -34 11 -10 20 -30 20
-44 0 -15 9 -34 20 -44 11 -9 20 -24 20 -33 0 -9 9 -27 20 -41 11 -14 20 -34
20 -43 0 -10 7 -23 14 -30 8 -6 20 -27 26 -46 8 -25 19 -36 38 -40 15 -3 46
-12 70 -21 28 -10 55 -13 75 -8 18 4 58 7 90 6 31 0 77 -1 102 -1 25 0 72 0
105 0 33 0 79 0 103 0 23 0 79 2 124 6 l82 5 25 44 c16 26 26 59 26 82 0 21 9
51 20 68 11 17 20 46 20 66 0 20 9 56 20 80 11 24 20 60 20 79 0 19 9 55 20
79 11 24 20 57 20 75 0 17 9 46 20 64 12 19 20 50 20 75 0 25 8 54 20 72 11
17 20 44 20 62 0 18 9 55 20 83 11 28 20 65 20 83 0 18 9 49 20 70 11 20 20
56 20 79 0 27 8 52 20 68 12 16 20 41 20 68 0 23 9 59 20 79 11 21 20 52 20
70 0 18 9 55 20 83 11 28 20 67 20 88 0 20 9 51 20 67 11 17 20 47 20 67 0 21
9 52 20 70 11 18 20 50 20 71 0 21 9 55 20 77 11 22 20 56 20 77 0 21 9 58 20
82 11 24 20 59 20 78 0 20 9 46 20 60 13 17 20 41 20 69 0 25 9 60 20 81 11
21 20 54 20 73 0 19 9 55 20 79 11 24 20 62 20 85 0 24 8 53 20 71 11 17 20
47 20 70 0 23 9 53 20 70 12 18 20 47 20 71 0 23 9 61 20 85 22 49 26 119 8
137 -9 9 -97 12 -334 12 l-322 0 -26 -31 c-14 -17 -26 -40 -26 -52 0 -12 -9
-42 -20 -66 -11 -24 -20 -62 -20 -86 0 -27 -7 -51 -20 -68 -12 -15 -20 -41
-20 -64 -1 -21 -9 -56 -20 -78 -11 -22 -19 -55 -20 -73 0 -18 -7 -49 -16 -70
-9 -20 -20 -63 -24 -96 -5 -32 -16 -66 -24 -75 -10 -10 -16 -36 -16 -62 0 -27
-8 -55 -20 -74 -11 -16 -20 -44 -20 -62 0 -18 -9 -55 -20 -83 -11 -28 -20 -65
-20 -83 0 -18 -9 -52 -20 -76 -11 -24 -20 -60 -20 -81 0 -22 -8 -48 -20 -63
-13 -16 -20 -40 -20 -66 0 -23 -9 -58 -20 -78 -11 -21 -20 -52 -20 -70 0 -18
-9 -55 -20 -83 -11 -28 -20 -68 -20 -89 0 -23 -8 -48 -20 -64 -13 -16 -20 -40
-20 -66 0 -23 -9 -55 -20 -73 -11 -18 -20 -51 -20 -72 0 -37 -41 -116 -59
-116 -13 0 -59 54 -65 77 -4 11 -13 27 -21 33 -8 7 -15 20 -15 30 0 9 -9 29
-20 43 -11 14 -20 34 -20 45 0 12 -4 23 -9 26 -5 4 -33 55 -61 114 -29 59 -56
114 -60 122 -5 8 -32 62 -60 120 -28 58 -60 122 -71 142 -10 20 -19 43 -19 51
0 8 -9 22 -20 32 -11 10 -20 28 -20 40 0 12 -9 30 -20 40 -11 10 -20 25 -20
34 0 9 -9 30 -20 46 -11 17 -20 37 -20 46 0 9 -9 24 -20 34 -11 10 -20 28 -20
40 0 12 -9 30 -20 40 -11 10 -20 27 -20 37 0 11 -9 31 -20 45 -11 14 -20 34
-20 43 0 10 -7 23 -15 30 -8 7 -19 29 -25 50 -6 21 -17 41 -25 44 -8 3 -15 16
-15 29 0 13 -9 32 -20 42 -11 10 -20 27 -20 37 0 11 -9 36 -19 56 -11 20 -31
63 -46 94 -15 31 -33 62 -41 69 -8 6 -14 20 -14 31 0 11 -9 31 -20 45 -11 14
-20 32 -20 39 0 14 -37 87 -63 125 -10 13 -17 30 -17 37 0 13 -25 49 -65 95
-14 16 -44 17 -355 17 -327 0 -341 -1 -360 -20z"/>
    <path d="M17045 3878 c-31 -17 -45 -39 -45 -72 0 -17 -9 -44 -20 -61 -11 -17
-20 -47 -20 -68 0 -21 -7 -54 -16 -75 -8 -20 -20 -61 -24 -91 -5 -30 -16 -61
-25 -71 -8 -9 -15 -34 -15 -56 -1 -28 -9 -48 -31 -74 l-30 -35 -200 -2 c-219
-2 -240 -7 -260 -61 -5 -15 -16 -39 -24 -54 -8 -14 -15 -43 -15 -63 0 -22 -8
-47 -20 -62 -12 -16 -20 -41 -20 -63 0 -21 -10 -64 -22 -94 l-21 -57 28 -29
29 -30 177 0 c148 0 180 -3 193 -16 23 -23 21 -121 -4 -184 -11 -28 -20 -70
-20 -93 0 -25 -8 -54 -20 -72 -11 -17 -20 -47 -20 -70 0 -23 -9 -53 -20 -70
-11 -16 -20 -44 -20 -62 0 -18 -9 -55 -20 -83 -11 -28 -20 -64 -20 -81 0 -16
-9 -47 -20 -69 -11 -22 -20 -59 -20 -82 0 -26 -8 -55 -20 -73 -14 -21 -20 -47
-20 -86 0 -33 -6 -63 -15 -75 -20 -27 -21 -268 0 -304 8 -14 14 -43 15 -66 0
-26 7 -49 20 -64 11 -13 20 -27 20 -31 0 -21 68 -105 114 -139 28 -22 63 -48
78 -60 14 -11 36 -20 47 -20 12 0 33 -7 46 -16 16 -10 65 -19 137 -25 62 -6
137 -15 166 -21 40 -9 61 -9 85 0 18 6 82 14 142 18 73 4 125 13 154 25 24 11
56 19 71 19 20 0 38 12 64 41 42 45 56 76 56 122 1 18 9 50 20 72 11 22 19 57
20 79 0 21 9 54 20 72 17 26 20 46 18 101 -3 62 -5 68 -26 71 -12 2 -34 -6
-48 -17 -15 -12 -39 -21 -55 -21 -16 0 -51 -9 -79 -20 -116 -46 -249 -17 -317
68 -33 41 -33 41 -33 154 0 89 4 124 20 166 11 29 20 67 20 85 1 17 9 50 20
72 11 22 19 58 20 80 0 22 9 57 20 78 11 20 20 54 20 74 0 21 9 52 20 68 11
17 20 47 20 68 0 21 6 50 14 65 8 15 19 53 25 84 5 32 17 71 26 87 8 17 15 43
15 59 0 19 11 39 33 60 l33 32 285 0 c286 0 286 0 307 23 12 13 22 31 22 41 0
9 9 34 20 56 11 22 20 57 20 78 0 24 8 49 20 65 13 16 20 41 20 69 1 23 7 54
15 68 21 37 18 64 -10 90 -25 23 -27 23 -283 24 -141 1 -263 5 -269 9 -19 12
-17 137 2 164 8 12 19 50 24 86 5 35 16 78 25 95 9 17 16 49 16 70 0 24 8 49
20 65 27 34 27 102 1 117 -28 14 -629 13 -656 -2z"/>
    <path d="M14675 3309 c-16 -5 -67 -16 -113 -24 -45 -8 -92 -21 -104 -30 -13
-8 -35 -15 -51 -15 -16 0 -40 -9 -54 -20 -14 -11 -35 -20 -45 -20 -11 0 -31
-9 -45 -20 -14 -11 -33 -20 -43 -20 -10 0 -28 -8 -41 -18 -13 -10 -35 -23 -49
-30 -40 -19 -60 -33 -140 -98 -91 -75 -254 -249 -272 -292 -4 -9 -21 -35 -37
-57 -17 -22 -37 -54 -45 -71 -7 -17 -19 -35 -25 -38 -6 -4 -11 -15 -11 -24 0
-9 -9 -28 -20 -42 -11 -14 -20 -34 -20 -46 0 -11 -9 -29 -20 -39 -11 -10 -20
-31 -20 -47 0 -17 -9 -41 -20 -55 -12 -15 -20 -41 -20 -62 0 -20 -9 -61 -19
-91 -38 -110 -35 -454 4 -530 8 -16 15 -42 15 -58 0 -16 9 -37 20 -47 11 -10
20 -28 20 -40 0 -12 9 -32 20 -45 11 -13 20 -27 20 -33 0 -5 10 -22 23 -37 45
-57 57 -74 57 -84 0 -13 130 -135 165 -153 17 -9 33 -20 36 -25 7 -11 20 -19
110 -65 34 -18 70 -33 79 -33 9 0 27 -9 40 -20 13 -11 36 -20 51 -20 16 0 45
-9 66 -19 22 -11 72 -22 117 -26 44 -3 87 -10 97 -16 23 -12 310 -12 343 1 14
5 60 12 103 16 43 4 97 15 120 25 23 11 58 19 78 19 22 0 47 8 62 20 14 11 36
20 48 20 12 0 32 9 45 20 13 11 30 20 37 20 8 0 26 9 40 20 14 11 34 20 44 20
10 0 20 4 24 9 7 12 93 71 103 71 26 0 312 299 312 326 0 4 7 16 17 26 18 21
36 49 57 94 8 17 22 36 30 44 9 7 16 20 16 30 0 9 9 25 20 35 11 10 20 28 20
39 0 12 9 32 20 46 11 14 20 35 20 48 0 12 9 39 20 59 11 21 20 56 20 78 0 24
8 50 20 65 18 23 20 42 20 260 0 218 -2 237 -20 265 -11 17 -20 45 -20 63 0
19 -9 45 -20 59 -11 14 -20 34 -20 44 0 11 -15 41 -34 67 -18 27 -41 63 -50
81 -9 17 -53 66 -97 109 -69 67 -100 91 -179 142 -8 5 -32 21 -53 35 -21 14
-46 25 -56 25 -10 0 -30 9 -44 20 -14 11 -35 20 -46 20 -12 0 -38 9 -58 20
-21 11 -51 20 -68 20 -16 1 -48 8 -70 16 -49 19 -481 30 -530 13z m341 -582
c27 -7 64 -22 83 -33 45 -26 141 -113 141 -129 0 -7 9 -24 20 -38 11 -14 20
-36 20 -49 0 -12 9 -38 20 -56 17 -28 20 -50 20 -160 0 -131 -14 -200 -60
-292 -9 -19 -20 -47 -24 -62 -3 -16 -10 -28 -15 -28 -5 0 -21 -25 -37 -56 -35
-69 -220 -252 -264 -260 -16 -4 -37 -15 -46 -25 -9 -11 -26 -19 -37 -19 -11 0
-28 -7 -38 -16 -43 -38 -337 -43 -389 -6 -14 9 -38 24 -55 32 -36 19 -115 96
-115 114 0 7 -9 21 -20 31 -11 10 -20 25 -20 33 0 8 -10 30 -22 50 -19 31 -21
48 -21 191 0 139 2 161 21 205 12 27 22 56 23 65 0 9 14 39 30 66 16 28 36 64
44 81 32 69 290 314 330 314 9 0 28 9 42 20 14 11 40 20 57 21 17 0 51 6 76
13 53 15 169 11 236 -7z"/>
    <path d="M18636 3263 c-35 -18 -76 -95 -76 -140 0 -21 -9 -51 -20 -68 -11 -17
-20 -47 -20 -68 0 -21 -7 -52 -16 -68 -8 -17 -20 -58 -25 -91 -5 -33 -16 -73
-24 -89 -8 -15 -15 -46 -15 -67 0 -24 -8 -49 -20 -65 -13 -16 -20 -40 -20 -66
0 -23 -9 -58 -20 -78 -11 -21 -20 -51 -20 -68 0 -16 -9 -54 -20 -83 -11 -29
-20 -67 -20 -85 0 -18 -9 -49 -20 -70 -11 -20 -20 -54 -20 -74 0 -22 -9 -48
-20 -63 -12 -15 -20 -41 -20 -66 0 -23 -9 -61 -20 -85 -11 -24 -20 -57 -20
-74 0 -16 -9 -50 -20 -74 -11 -24 -20 -62 -20 -86 0 -27 -7 -51 -20 -68 -13
-16 -20 -40 -20 -66 0 -23 -9 -58 -20 -78 -11 -21 -20 -54 -20 -73 0 -19 -9
-55 -20 -79 -11 -24 -20 -60 -20 -80 0 -20 -9 -53 -20 -74 -20 -37 -28 -140
-12 -163 4 -5 39 -10 77 -10 39 0 87 -4 108 -8 26 -6 45 -5 61 4 16 8 42 10
77 6 69 -9 122 -9 182 -1 29 5 59 2 77 -5 37 -15 60 -3 99 55 21 32 31 58 31
84 0 22 9 58 20 82 11 24 20 60 20 79 0 19 9 55 20 79 11 24 20 60 20 80 0 20
9 50 20 66 11 17 20 46 20 65 0 19 9 53 20 75 11 22 19 56 20 76 0 20 9 56 20
80 11 24 20 59 20 77 0 18 9 50 20 72 11 22 20 56 20 77 0 21 9 51 20 68 11
17 20 46 20 65 0 19 9 53 20 75 11 22 20 58 20 80 0 22 9 58 20 80 11 22 20
58 20 80 0 23 9 53 20 70 11 17 20 47 20 69 0 21 8 53 19 70 10 17 21 56 24
86 3 30 12 69 21 85 9 17 16 48 16 70 0 23 9 53 20 70 11 17 20 47 20 68 0 24
8 49 20 64 26 33 29 143 4 167 -19 19 8 18 -327 20 -202 1 -284 -2 -301 -11z"/>
    <path d="M21666 3270 c-36 -14 -66 -49 -66 -78 0 -16 -9 -49 -20 -73 -11 -24
-20 -60 -20 -79 0 -19 -9 -55 -20 -79 -11 -24 -20 -63 -20 -88 0 -30 -7 -53
-20 -70 -12 -16 -20 -41 -20 -65 0 -21 -9 -56 -20 -78 -11 -22 -20 -55 -20
-74 0 -19 -9 -58 -20 -86 -11 -28 -20 -65 -20 -83 0 -18 -9 -52 -20 -76 -11
-24 -20 -61 -20 -83 0 -25 -8 -50 -20 -65 -14 -18 -20 -41 -20 -77 0 -31 -6
-61 -16 -74 -9 -13 -20 -51 -25 -85 -5 -34 -14 -84 -21 -112 -20 -78 -16 -267
6 -350 40 -149 130 -283 234 -352 31 -21 59 -40 62 -43 15 -17 122 -60 165
-65 27 -4 62 -13 77 -21 20 -11 74 -14 217 -14 167 0 197 2 241 20 28 11 61
20 73 20 12 0 39 9 60 20 20 11 45 20 55 20 11 0 27 9 37 20 10 11 28 20 40
20 12 0 30 9 39 19 10 11 28 22 42 25 13 4 24 10 24 15 0 4 18 16 40 26 37 17
41 17 65 1 30 -20 31 -35 5 -69 -11 -14 -20 -39 -20 -56 0 -17 -9 -48 -20 -68
-11 -21 -20 -48 -20 -61 0 -12 -9 -40 -20 -62 -11 -22 -20 -47 -20 -56 0 -18
-92 -133 -119 -148 -9 -5 -38 -27 -64 -48 -29 -22 -60 -38 -75 -38 -15 0 -47
-9 -71 -20 -39 -18 -65 -20 -271 -20 -201 0 -234 2 -285 20 -32 11 -74 20 -94
20 -20 0 -56 9 -80 20 -24 11 -58 20 -76 20 -18 0 -44 9 -58 20 -14 11 -36 20
-50 20 -13 0 -34 9 -47 20 -13 11 -32 20 -42 20 -10 0 -32 7 -49 15 -27 15
-31 14 -59 -7 -18 -13 -34 -37 -40 -59 -6 -20 -17 -42 -25 -49 -8 -7 -15 -20
-15 -30 0 -14 -18 -53 -69 -150 -39 -74 -49 -101 -56 -137 -6 -39 -4 -45 26
-73 19 -16 41 -30 50 -30 9 0 28 -9 42 -20 14 -11 36 -20 50 -20 13 0 32 -9
42 -20 10 -11 31 -20 47 -20 15 0 45 -9 65 -20 21 -11 50 -20 64 -20 15 0 56
-9 91 -20 36 -11 91 -20 130 -20 57 0 70 -3 80 -20 12 -19 24 -20 305 -20 280
0 294 1 313 20 15 15 33 20 75 20 31 0 76 9 105 20 28 11 61 20 73 20 12 0 36
9 52 20 17 11 38 20 48 20 11 0 30 9 44 20 14 11 32 20 39 20 24 0 156 97 252
185 68 63 212 237 212 256 0 6 9 22 20 36 11 14 20 33 20 43 0 9 9 25 20 35
11 10 20 28 20 40 0 12 9 30 20 40 11 10 20 26 20 35 0 10 9 29 20 43 11 14
20 34 20 44 0 10 9 35 20 56 11 20 20 52 20 70 0 18 9 49 20 70 11 20 20 54
20 74 0 21 9 52 20 68 11 17 20 44 20 62 0 18 9 55 20 83 11 28 20 65 20 83 0
18 9 49 20 70 11 20 20 55 20 78 0 26 7 50 20 66 12 15 20 41 20 63 0 21 9 57
20 81 11 24 20 56 20 71 0 15 9 50 20 78 11 28 20 68 20 89 0 23 8 48 20 64
13 16 20 40 20 69 0 26 8 55 20 73 11 17 20 47 20 68 0 21 7 52 16 68 8 17 20
58 25 91 6 34 16 70 24 82 8 11 15 39 15 62 0 26 7 51 20 67 13 16 20 40 20
66 0 23 9 59 20 81 11 22 20 53 20 70 0 17 9 56 20 87 11 32 20 72 20 90 0 22
7 37 20 45 31 20 27 71 -7 93 -24 16 -57 18 -331 18 -223 -1 -310 -4 -327 -13
-29 -15 -75 -115 -75 -161 0 -19 -9 -54 -20 -78 -11 -24 -20 -62 -20 -85 0
-24 -8 -53 -20 -71 -11 -17 -20 -47 -20 -70 0 -23 -9 -53 -20 -70 -12 -18 -20
-47 -20 -72 0 -23 -9 -65 -20 -93 -11 -28 -20 -63 -20 -78 0 -15 -9 -47 -20
-71 -11 -24 -20 -62 -20 -86 0 -27 -7 -51 -20 -68 -13 -16 -20 -40 -20 -69 0
-26 -8 -55 -20 -73 -11 -16 -20 -41 -20 -55 0 -14 -9 -38 -20 -55 -11 -16 -20
-37 -20 -46 0 -9 -9 -26 -20 -39 -11 -13 -20 -28 -20 -34 0 -38 -212 -246
-250 -246 -7 0 -23 -9 -37 -20 -14 -11 -37 -20 -52 -20 -14 0 -39 -9 -56 -20
-27 -18 -47 -20 -192 -20 l-162 0 -45 30 c-81 55 -86 66 -86 204 0 104 3 125
20 151 12 19 20 47 20 75 0 27 8 58 20 78 11 18 20 48 20 66 0 19 9 53 20 77
11 24 20 60 20 79 0 19 9 55 20 79 11 24 20 62 20 86 0 29 6 47 20 60 14 13
20 31 20 62 0 24 9 59 20 80 11 21 20 54 20 73 0 19 9 55 20 79 11 24 20 60
20 80 0 20 9 50 20 66 12 18 20 47 20 71 0 26 7 51 20 67 38 48 17 145 -32
148 -78 3 -632 3 -642 -1z"/>
  </g>
</svg>
