<svg xmlns="http://www.w3.org/2000/svg" viewBox="0 0 2400 928" role="img" aria-label="Turbo Notify">
  <title>Turbo Notify</title>
  <defs>
    <linearGradient id="g" x1="0.7" y1="0" x2="0.3" y2="1">
      <stop offset="0%" stop-color="#6edebe"/>
      <stop offset="50%" stop-color="#23b38a"/>
      <stop offset="100%" stop-color="#177d60"/>
    </linearGradient>
  </defs>  <g transform="translate(30,854) scale(0.038086,-0.038086)" fill="url(#g)" stroke="none">
    <path d="svg4"/>
    <path d="defs4"/>
    <path d="namedview4"/>
    <path d="0"/>
    <path d="metadata1"/>
    <path d="g4"/>
    <path d="m 10671,20452 c -582.236,-816.168 2032.052,-769.459 1576.375,-608.5 1273.169,-169.264 2457.862,-610.774 3622.391,-1144.422 -33.279,310.07 -1657.544,1113.588 -1255.766,894.922 -1066.561,558.287 -2252.155,825.442 -3440,890.125 -167.757,-5.601 -337.546,3.387 -503,-32.125 z"/>
    <path d="path1"/>
    <path d="m 8479,20119 c -1803.3511,-357.159 -3537.5748,-1213.542 -4893,-2486 246.9364,-99.026 1640.8182,749.006 1241,617 1227.7244,654.854 2529.6279,1117.194 3895.875,1348.625 453.7621,146.828 149.5759,664.061 -243.875,520.375 z"/>
    <path d="path2"/>
    <path d="M 10360,18790 C 9493.7339,18716.437 6979.5059,18101.208 7809,18340 6176.3838,17865.51 4614.7275,16920.083 3466.375,15619.625 2468.075,14542.822 1695.4491,13231.853 1339,11822 1064.0048,10747.001 970.05692,9580.7353 1160,8466 1257.7341,7581.3987 1606.6898,6748.4674 1999,5964 2409.2608,5144.2846 2553.5359,4150.0658 2152.875,3302.125 1975.8043,2661.7448 1573.9914,2113.1874 1254.375,1538.75 1152.546,396.54286 3885.6862,1266.7437 3254,1070 4092.6189,1355.644 6775.4552,1560.6345 5868.8438,1599.5 6685.0542,1493.1547 7502.8854,1338.1573 8320,1210 c 875.7829,-113.7667 1776.286,-42.2107 2642,78 2263.425,319.3575 4350.19,1531.3455 5892.047,3231.5625 1322.854,1381.6631 2272.553,3183.9841 2480.703,5077.9375 163.341,895.407 105.926,1843.638 -59.75,2728.5 -395.956,2053.52 -1624.354,3962.717 -3415,5080 -942.896,603.107 -1973.46,1085.277 -3080,1231 -779.29,172.324 -1610.92,171.757 -2420,153 z"/>
    <path d="path3"/>
    <path d="M 16852,2895 C 15652.259,1903.359 14318.962,1067.5289 12860.125,510.375 12428.074,-255.32511 14236.278,655.40505 13921,356 c 1142.04,641.01813 2201.076,1487.7455 2976,2547 l -17.25,15.875 z"/>
    <path d="path4"/>
  </g>
  <g transform="translate(30,854) scale(0.038086,-0.038086)" fill="#ffffff" stroke="none">
    <path d="svg1"/>
    <path d="defs1"/>
    <path d="namedview1"/>
    <path d="0"/>
    <path d="metadata1"/>
    <path d="g1"/>
    <path d="m 13570,16380 c -471.386,-230.952 -925.013,-549.566 -1373,-839 C 10557.811,14419.072 8995.387,13186.679 7531.9062,11840.062 6759.2213,11084.651 5969.009,10337.472 5301,9486 c -408.7777,-588.3266 1347.2952,-659.386 869.7734,-782.3613 533.7509,42.5296 1071.626,-7.836 1595.9922,106.7832 605.3547,38.2115 1206.0099,103.6721 1811.5625,160.2343 542.5319,20.4803 1104.9839,76.2282 1637.7969,12.5938 -315.512,-389.9899 -684.049,-765.3375 -1013.859,-1155.3125 C 9513.2068,6990.0442 8791.6093,6179.2406 8082.9434,5357.8594 7744.5646,4929.8351 7319.2022,4551.9322 7035,4092 c 34.0446,-629.8969 1451.7084,310.9952 1139,146 926.2578,536.2536 1798.3692,1173.2879 2687,1780 818.521,604.4107 1647.164,1199.8462 2426,1855 777.102,622.8368 1510.507,1310.2118 2158,2067 345.008,319.456 365.726,996.355 -242,1006 -589.007,143.531 -1202.214,73.009 -1797.625,174.125 -581.923,-19.059 -1152.792,38.401 -1728.25,87.125 -476.644,-78.577 -694.317,64.1 -327.125,447.75 441.005,738.599 851.26,1483.784 1290,2228 305.345,544.825 582.952,1105.231 935,1627 131.762,241.169 624.914,913.562 -5,870 z"/>
    <path d="path1"/>
  </g>
  <g fill="#17181c" stroke="none">
    <path d="svg2"/>
    <path d="defs2"/>
    <path d="namedview2"/>
    <path d="0"/>
    <path d="m 1224.74,180.3 -9.52,53.04 h -63.58 L 1118.66,420 h -66.98 l 32.98,-186.66 h -63.24 l 9.52,-53.04 z m 211.48,48.96 -34,190.74 h -66.64 l 4.76,-27.2 q -11.22,12.92 -27.54,21.08 -15.98,7.82 -35.36,7.82 -28.22,0 -43.86,-15.98 -15.64,-15.98 -15.64,-44.54 0,-9.86 2.04,-21.08 l 19.38,-110.84 H 1306 l -18.02,102.34 q -1.02,4.42 -1.02,8.84 0,12.24 7.14,19.38 7.14,6.8 19.38,6.8 14.28,0 24.14,-8.84 9.86,-8.84 13.26,-24.48 l 18.36,-104.04 z m 98.6003,34.68 q 13.94,-16.66 31.62,-26.52 17.68,-9.86 36.04,-9.86 l -12.24,71.06 h -18.7 q -21.08,0 -32.98,7.82 -11.9,7.82 -15.98,27.2 l -15.3,86.36 h -66.98 l 34,-190.74 h 66.64 z m 153.3401,-8.16 q 9.86,-13.26 25.5,-21.08 15.98,-7.82 35.36,-7.82 29.92,0 47.94,19.72 18.36,19.72 18.36,54.06 0,10.88 -2.04,23.8 -5.44,29.58 -20.06,52.02 -14.62,22.1 -35.36,34 -20.4,11.9 -43.18,11.9 -19.72,0 -32.64,-7.48 -12.58,-7.82 -18.02,-21.42 l -4.76,26.52 h -66.98 l 44.54,-251.6 h 66.98 z m 57.12,68.68 q 1.02,-5.1 1.02,-9.86 0,-13.94 -8.16,-21.76 -7.82,-7.82 -20.4,-7.82 -14.62,0 -26.86,10.54 -11.9,10.54 -14.96,28.9 -1.02,5.1 -1.02,9.52 0,14.28 7.82,22.44 8.16,7.82 20.74,7.82 14.96,0 26.86,-10.54 11.9,-10.88 14.96,-29.24 z m 166.9402,97.92 q -24.82,0 -44.2,-9.86 -19.04,-9.86 -29.58,-27.88 -10.54,-18.02 -10.54,-42.16 0,-32.64 15.3,-59.16 15.64,-26.52 42.84,-41.48 27.2,-14.96 60.86,-14.96 24.82,0 43.86,9.86 19.38,9.86 29.92,28.22 10.88,18.02 10.88,42.16 0,32.98 -15.64,59.5 -15.64,26.18 -42.84,41.14 -27.2,14.62 -60.86,14.62 z m 10.2,-57.46 q 11.9,0 21.08,-7.48 9.52,-7.48 14.28,-19.38 5.1,-11.9 5.1,-24.48 0,-14.28 -7.48,-21.76 -7.14,-7.48 -18.7,-7.48 -12.24,0 -21.42,7.48 -8.84,7.48 -13.94,19.38 -4.76,11.9 -4.76,24.82 0,14.28 7.14,21.76 7.14,7.14 18.7,7.14 z"/>
    <path d="text1"/>
    <path d="m 1224.06,770 h -66.98 l -64.6,-133.96 -23.8,133.96 h -66.98 l 42.5,-239.7 h 66.64 l 64.94,135.66 23.8,-135.66 h 66.64 z m 126.4798,2.38 q -24.82,0 -44.2,-9.86 -19.04,-9.86 -29.58,-27.88 -10.54,-18.02 -10.54,-42.16 0,-32.64 15.3,-59.16 15.64,-26.52 42.84,-41.48 27.2,-14.96 60.86,-14.96 24.82,0 43.86,9.86 19.38,9.86 29.92,28.22 10.88,18.02 10.88,42.16 0,32.98 -15.64,59.5 -15.64,26.18 -42.84,41.14 -27.2,14.62 -60.86,14.62 z m 10.2,-57.46 q 11.9,0 21.08,-7.48 9.52,-7.48 14.28,-19.38 5.1,-11.9 5.1,-24.48 0,-14.28 -7.48,-21.76 -7.14,-7.48 -18.7,-7.48 -12.24,0 -21.42,7.48 -8.84,7.48 -13.94,19.38 -4.76,11.9 -4.76,24.82 0,14.28 7.14,21.76 7.14,7.14 18.7,7.14 z m 207.3999,-16.32 q -0.34,1.7 -0.34,4.08 0,5.44 3.06,8.16 3.4,2.38 10.88,2.38 h 19.38 l -10.2,56.78 h -29.24 q -62.22,0 -62.22,-52.36 0,-8.84 2.04,-20.06 l 11.22,-62.9 h -23.46 l 9.86,-55.42 h 23.46 l 8.16,-46.24 h 66.98 l -8.16,46.24 h 34.34 l -9.86,55.42 h -34.34 z m 123.7598,-137.02 q -15.64,0 -24.82,-7.82 -8.84,-7.82 -8.84,-20.06 0,-10.88 5.78,-20.06 6.12,-9.52 16.32,-14.96 10.54,-5.78 23.46,-5.78 15.64,0 24.48,8.16 9.18,7.82 9.18,20.4 0,10.88 -6.12,20.06 -5.78,9.18 -16.32,14.62 -10.54,5.44 -23.12,5.44 z m 29.92,17.68 -33.66,190.74 h -66.98 l 34,-190.74 z m 143.8202,-20.4 q -2.72,-0.34 -7.14,-0.34 -11.22,0 -17,5.1 -5.78,4.76 -8.5,15.64 h 29.92 l -9.86,55.42 h -29.92 l -23.8,135.32 h -66.98 l 23.8,-135.32 h -20.74 l 9.86,-55.42 h 20.74 l 0.34,-1.7 q 6.8,-36.72 31.62,-56.1 24.82,-19.72 64.94,-19.72 8.16,0 12.58,0.34 z m 74.4597,20.4 20.74,108.12 57.8,-108.12 h 73.1 l -170.34,281.52 h -72.42 l 62.9,-98.94 -45.9,-182.58 z"/>
    <path d="text2"/>
  </g>
</svg>
