<svg xmlns="http://www.w3.org/2000/svg" viewBox="0 0 2400 928" role="img" aria-label="Turbo Notify">
  <title>Turbo Notify</title>
  <defs>
    <linearGradient id="g" x1="0.65" y1="0.05" x2="0.35" y2="0.95">
      <stop offset="0%" stop-color="#6edebe"/>
      <stop offset="50%" stop-color="#23b38a"/>
      <stop offset="100%" stop-color="#177d60"/>
    </linearGradient>
  </defs>
  <g transform="translate(20,59) scale(8.1)">
    <path d="M 88,44
    A 40,40 0 1 0 20,72
    C 16,80 10,89 13,92
    C 16,95 22,87 26,80
    C 29,75 27,71 25,68
    A 40,40 0 0 0 88,44 Z" fill="url(#g)"/>
    <path d="M 24,8 C 30,4 40,2 50,3" fill="none" stroke="url(#g)" stroke-width="3.5" stroke-linecap="round"/>
    <path d="M 14,18 C 22,12 34,9 44,11" fill="none" stroke="url(#g)" stroke-width="3.2" stroke-linecap="round"/>
    <path d="M 72,87 C 78,83 85,78 90,73" fill="none" stroke="url(#g)" stroke-width="3" stroke-linecap="round"/>
    <path d="M 62,15
    C 60,19 44,42 37,49
    L 50,49
    L 36,83
    C 38,79 54,56 63,51
    L 50,51 Z" fill="#ffffff"/>
  </g>
  <g fill="#17181c" stroke="none">
    <path d="svg2"/>
    <path d="defs2"/>
    <path d="namedview2"/>
    <path d="0"/>
    <path d="m 1224.74,180.3 -9.52,53.04 h -63.58 L 1118.66,420 h -66.98 l 32.98,-186.66 h -63.24 l 9.52,-53.04 z m 211.48,48.96 -34,190.74 h -66.64 l 4.76,-27.2 q -11.22,12.92 -27.54,21.08 -15.98,7.82 -35.36,7.82 -28.22,0 -43.86,-15.98 -15.64,-15.98 -15.64,-44.54 0,-9.86 2.04,-21.08 l 19.38,-110.84 H 1306 l -18.02,102.34 q -1.02,4.42 -1.02,8.84 0,12.24 7.14,19.38 7.14,6.8 19.38,6.8 14.28,0 24.14,-8.84 9.86,-8.84 13.26,-24.48 l 18.36,-104.04 z m 98.6003,34.68 q 13.94,-16.66 31.62,-26.52 17.68,-9.86 36.04,-9.86 l -12.24,71.06 h -18.7 q -21.08,0 -32.98,7.82 -11.9,7.82 -15.98,27.2 l -15.3,86.36 h -66.98 l 34,-190.74 h 66.64 z m 153.3401,-8.16 q 9.86,-13.26 25.5,-21.08 15.98,-7.82 35.36,-7.82 29.92,0 47.94,19.72 18.36,19.72 18.36,54.06 0,10.88 -2.04,23.8 -5.44,29.58 -20.06,52.02 -14.62,22.1 -35.36,34 -20.4,11.9 -43.18,11.9 -19.72,0 -32.64,-7.48 -12.58,-7.82 -18.02,-21.42 l -4.76,26.52 h -66.98 l 44.54,-251.6 h 66.98 z m 57.12,68.68 q 1.02,-5.1 1.02,-9.86 0,-13.94 -8.16,-21.76 -7.82,-7.82 -20.4,-7.82 -14.62,0 -26.86,10.54 -11.9,10.54 -14.96,28.9 -1.02,5.1 -1.02,9.52 0,14.28 7.82,22.44 8.16,7.82 20.74,7.82 14.96,0 26.86,-10.54 11.9,-10.88 14.96,-29.24 z m 166.9402,97.92 q -24.82,0 -44.2,-9.86 -19.04,-9.86 -29.58,-27.88 -10.54,-18.02 -10.54,-42.16 0,-32.64 15.3,-59.16 15.64,-26.52 42.84,-41.48 27.2,-14.96 60.86,-14.96 24.82,0 43.86,9.86 19.38,9.86 29.92,28.22 10.88,18.02 10.88,42.16 0,32.98 -15.64,59.5 -15.64,26.18 -42.84,41.14 -27.2,14.62 -60.86,14.62 z m 10.2,-57.46 q 11.9,0 21.08,-7.48 9.52,-7.48 14.28,-19.38 5.1,-11.9 5.1,-24.48 0,-14.28 -7.48,-21.76 -7.14,-7.48 -18.7,-7.48 -12.24,0 -21.42,7.48 -8.84,7.48 -13.94,19.38 -4.76,11.9 -4.76,24.82 0,14.28 7.14,21.76 7.14,7.14 18.7,7.14 z"/>
    <path d="text1"/>
    <path d="m 1224.06,770 h -66.98 l -64.6,-133.96 -23.8,133.96 h -66.98 l 42.5,-239.7 h 66.64 l 64.94,135.66 23.8,-135.66 h 66.64 z m 126.4798,2.38 q -24.82,0 -44.2,-9.86 -19.04,-9.86 -29.58,-27.88 -10.54,-18.02 -10.54,-42.16 0,-32.64 15.3,-59.16 15.64,-26.52 42.84,-41.48 27.2,-14.96 60.86,-14.96 24.82,0 43.86,9.86 19.38,9.86 29.92,28.22 10.88,18.02 10.88,42.16 0,32.98 -15.64,59.5 -15.64,26.18 -42.84,41.14 -27.2,14.62 -60.86,14.62 z m 10.2,-57.46 q 11.9,0 21.08,-7.48 9.52,-7.48 14.28,-19.38 5.1,-11.9 5.1,-24.48 0,-14.28 -7.48,-21.76 -7.14,-7.48 -18.7,-7.48 -12.24,0 -21.42,7.48 -8.84,7.48 -13.94,19.38 -4.76,11.9 -4.76,24.82 0,14.28 7.14,21.76 7.14,7.14 18.7,7.14 z m 207.3999,-16.32 q -0.34,1.7 -0.34,4.08 0,5.44 3.06,8.16 3.4,2.38 10.88,2.38 h 19.38 l -10.2,56.78 h -29.24 q -62.22,0 -62.22,-52.36 0,-8.84 2.04,-20.06 l 11.22,-62.9 h -23.46 l 9.86,-55.42 h 23.46 l 8.16,-46.24 h 66.98 l -8.16,46.24 h 34.34 l -9.86,55.42 h -34.34 z m 123.7598,-137.02 q -15.64,0 -24.82,-7.82 -8.84,-7.82 -8.84,-20.06 0,-10.88 5.78,-20.06 6.12,-9.52 16.32,-14.96 10.54,-5.78 23.46,-5.78 15.64,0 24.48,8.16 9.18,7.82 9.18,20.4 0,10.88 -6.12,20.06 -5.78,9.18 -16.32,14.62 -10.54,5.44 -23.12,5.44 z m 29.92,17.68 -33.66,190.74 h -66.98 l 34,-190.74 z m 143.8202,-20.4 q -2.72,-0.34 -7.14,-0.34 -11.22,0 -17,5.1 -5.78,4.76 -8.5,15.64 h 29.92 l -9.86,55.42 h -29.92 l -23.8,135.32 h -66.98 l 23.8,-135.32 h -20.74 l 9.86,-55.42 h 20.74 l 0.34,-1.7 q 6.8,-36.72 31.62,-56.1 24.82,-19.72 64.94,-19.72 8.16,0 12.58,0.34 z m 74.4597,20.4 20.74,108.12 57.8,-108.12 h 73.1 l -170.34,281.52 h -72.42 l 62.9,-98.94 -45.9,-182.58 z"/>
    <path d="text2"/>
  </g>
</svg>
