<svg xmlns="http://www.w3.org/2000/svg" xmlns:xlink="http://www.w3.org/1999/xlink" viewBox="0 0 600 238" role="img" aria-label="Turbo Notify">
  <title>Turbo Notify</title>
<svg x="0" y="0" width="206" height="238" viewBox="0 0 1236 1428">
    <defs>
      <linearGradient id="ig" x1="12360" y1="14280" x2="0" y2="0" gradientUnits="userSpaceOnUse">
        <stop offset="0%" stop-color="#6edebe"/>
        <stop offset="50%" stop-color="#23b38a"/>
        <stop offset="100%" stop-color="#177d60"/>
      </linearGradient>
    </defs>
    <g transform="translate(0,1428) scale(0.1,-0.1)" fill="url(#ig)" stroke="none">
    <path d="M6517 14266 c-3 -8 -34 -25 -68 -37 -49 -18 -69 -32 -100 -71 -64 -81 -64 -150 0 -221 58 -65 95 -76 246 -77 180 -1 454 -16 615 -34 74 -8 187 -20 250 -26 63 -6 144 -19 180 -30 36 -10 102 -24 147 -29 46 -6 109 -17 140 -25 32 -8 109 -24 172 -36 63 -11 142 -28 175 -39 34 -10 88 -25 121 -34 33 -9 101 -27 150 -42 50 -14 132 -37 182 -50 51 -13 106 -31 122 -40 39 -20 133 -55 315 -116 82 -28 160 -58 174 -67 25 -16 87 -44 187 -84 28 -11 100 -44 160 -73 61 -29 147 -69 192 -89 45 -19 115 -54 155 -77 149 -86 164 -92 175 -63 10 26 -124 146 -365 326 -119 89 -184 133 -222 153 -19 10 -66 39 -105 64 -126 84 -347 201 -495 261 -41 17 -88 38 -105 47 -103 58 -265 123 -394 159 -30 9 -63 22 -75 29 -29 19 -225 83 -311 101 -38 8 -97 23 -130 34 -33 10 -80 22 -105 26 -25 3 -67 15 -93 25 -55 22 -456 77 -677 94 -107 8 -176 23 -191 41 -17 21 -414 21 -422 0z"/>
    <path d="M4962 14010 c-41 -11 -97 -22 -125 -26 -29 -4 -74 -15 -102 -26 -27 -10 -86 -27 -130 -38 -291 -68 -431 -108 -512 -145 -29 -14 -112 -44 -185 -69 -138 -46 -274 -100 -293 -116 -6 -5 -60 -29 -121 -53 -60 -24 -146 -65 -192 -90 -46 -25 -126 -67 -180 -92 -53 -25 -103 -52 -112 -60 -8 -7 -69 -43 -135 -80 -66 -37 -136 -79 -155 -94 -20 -16 -53 -38 -75 -49 -38 -20 -113 -69 -291 -191 -96 -66 -231 -170 -299 -231 -27 -25 -93 -80 -146 -123 -53 -42 -104 -88 -112 -101 -9 -13 -58 -57 -109 -99 -119 -96 -238 -220 -238 -248 0 -18 37 -8 86 24 143 91 209 134 239 158 19 14 84 55 145 90 62 35 137 83 168 105 32 23 109 70 172 105 63 34 122 68 130 75 8 6 83 47 165 90 83 42 164 86 180 96 17 10 36 18 44 18 8 0 94 40 190 88 97 49 223 106 281 127 58 21 116 47 130 56 30 20 138 64 235 95 147 48 218 74 230 84 14 12 164 60 295 96 188 50 259 71 291 87 19 8 139 36 268 61 128 25 257 53 285 61 28 9 82 20 120 25 81 12 177 59 211 105 55 71 41 169 -35 249 l-49 51 -98 2 c-72 2 -117 -2 -171 -17z"/>
    <path d="M6315 13114 c-71 -7 -160 -18 -197 -24 -37 -5 -95 -10 -130 -10 -60 0 -244 -20 -503 -55 -150 -20 -404 -71 -470 -95 -27 -9 -81 -23 -120 -29 -95 -16 -340 -78 -368 -93 -12 -6 -49 -19 -82 -29 -33 -9 -85 -26 -115 -37 -30 -11 -109 -37 -175 -57 -66 -21 -131 -45 -145 -55 -14 -9 -52 -26 -85 -39 -33 -12 -94 -35 -135 -50 -41 -16 -100 -41 -131 -57 -31 -16 -133 -67 -225 -114 -93 -47 -183 -94 -199 -106 -17 -12 -46 -29 -65 -38 -30 -14 -132 -78 -347 -219 -226 -147 -411 -288 -648 -493 -398 -343 -838 -827 -1079 -1184 -35 -52 -78 -113 -95 -134 -18 -22 -54 -78 -82 -125 -28 -47 -68 -115 -91 -151 -37 -59 -59 -100 -175 -315 -20 -38 -47 -92 -59 -120 -11 -27 -50 -111 -86 -185 -36 -74 -89 -205 -118 -290 -28 -85 -57 -164 -64 -175 -16 -24 -62 -180 -86 -290 -29 -129 -61 -255 -86 -335 -13 -41 -30 -129 -39 -195 -8 -66 -20 -142 -25 -170 -33 -166 -64 -802 -50 -1015 5 -85 15 -243 21 -350 6 -107 21 -262 34 -345 13 -82 27 -170 31 -195 3 -25 13 -61 21 -80 8 -19 23 -71 32 -115 35 -155 117 -429 146 -490 26 -52 64 -150 94 -245 10 -30 52 -125 93 -210 42 -85 79 -166 83 -180 4 -14 34 -78 66 -142 31 -65 74 -168 95 -230 20 -62 45 -133 55 -158 19 -45 44 -131 76 -265 24 -103 25 -521 0 -620 -25 -101 -62 -232 -85 -295 -11 -30 -34 -102 -52 -160 -18 -58 -46 -134 -62 -170 -17 -36 -41 -87 -54 -115 -12 -27 -42 -93 -65 -145 -23 -52 -50 -106 -59 -120 -10 -14 -35 -56 -57 -95 -54 -94 -117 -199 -155 -260 -60 -97 -97 -165 -135 -252 -35 -81 -38 -96 -38 -178 0 -90 0 -91 44 -158 51 -78 107 -132 166 -158 89 -39 293 -46 540 -18 109 12 341 63 412 91 29 11 76 26 105 33 98 24 273 74 328 93 30 11 78 27 105 37 154 54 228 78 300 96 44 11 114 31 155 44 210 65 262 75 456 85 104 5 241 13 304 16 145 8 526 -19 675 -46 61 -12 144 -25 185 -31 41 -5 100 -18 130 -29 30 -10 98 -24 150 -30 52 -6 142 -19 200 -30 58 -10 150 -24 205 -30 55 -6 134 -20 176 -31 42 -10 145 -23 230 -29 85 -5 208 -15 274 -20 137 -12 479 -11 605 1 47 5 171 13 275 19 105 6 218 17 253 25 35 8 136 24 225 35 194 24 483 74 517 90 24 10 143 43 280 77 124 30 275 74 325 94 61 25 190 73 265 99 144 49 206 72 234 89 17 10 69 35 116 55 106 46 227 105 260 126 14 9 68 36 120 60 52 24 122 62 155 84 33 23 99 63 147 91 78 45 170 104 313 202 28 18 79 56 115 84 36 27 116 89 179 137 62 48 147 114 188 147 41 33 94 75 117 93 112 90 473 432 617 584 196 208 395 439 479 553 23 33 69 94 100 135 51 67 210 307 343 515 26 41 73 124 104 183 31 59 64 118 73 132 19 27 55 104 114 240 20 47 44 99 53 115 38 71 53 106 87 206 19 59 44 126 55 150 50 113 76 194 135 425 13 50 28 99 34 110 17 33 80 303 96 414 38 264 48 356 56 520 9 171 32 357 51 406 12 34 12 330 -1 354 -21 39 -42 171 -51 324 -18 323 -80 668 -163 916 -8 25 -32 106 -52 180 -37 136 -76 244 -120 334 -13 28 -24 56 -24 64 0 7 -12 44 -26 80 -24 62 -54 126 -193 412 -154 317 -501 811 -770 1095 -252 266 -506 493 -744 664 -34 25 -93 67 -132 96 -38 28 -104 70 -145 95 -41 24 -84 51 -95 60 -28 23 -129 82 -205 120 -36 18 -80 44 -97 57 -31 22 -111 62 -263 129 -36 15 -78 37 -95 49 -34 23 -117 57 -225 90 -76 24 -194 71 -246 98 -16 8 -101 34 -189 56 -88 23 -182 51 -210 61 -27 11 -88 27 -135 36 -47 8 -110 22 -141 29 -31 8 -123 24 -205 34 -82 11 -194 27 -249 36 -55 8 -138 15 -185 15 -47 0 -116 7 -155 15 -164 36 -662 46 -920 19z m2216 -1619 c66 -35 85 -117 53 -225 -15 -52 -64 -149 -90 -180 -7 -8 -38 -60 -70 -115 -31 -55 -72 -125 -90 -155 -18 -30 -58 -100 -89 -155 -31 -55 -72 -125 -90 -155 -19 -30 -53 -92 -75 -137 -22 -45 -60 -113 -85 -150 -25 -37 -71 -115 -101 -173 -47 -90 -177 -321 -277 -496 -31 -52 -105 -187 -194 -349 -31 -55 -72 -125 -93 -155 -21 -30 -63 -104 -95 -165 -32 -60 -65 -119 -75 -130 -10 -11 -48 -76 -85 -145 -37 -69 -76 -134 -85 -145 -9 -11 -44 -69 -77 -130 -33 -60 -79 -139 -102 -174 -43 -67 -49 -92 -28 -109 6 -5 111 -13 232 -16 121 -4 272 -12 335 -17 121 -11 318 -21 770 -38 151 -6 363 -20 470 -31 107 -10 294 -22 415 -25 272 -7 372 -17 499 -50 127 -34 223 -82 271 -137 60 -70 68 -92 63 -177 -5 -67 -11 -87 -58 -176 -28 -55 -70 -122 -91 -150 -22 -27 -65 -84 -97 -125 -76 -100 -592 -622 -815 -824 -231 -210 -503 -441 -636 -541 -63 -48 -222 -172 -322 -253 -245 -196 -335 -266 -464 -363 -82 -62 -177 -133 -210 -158 -33 -25 -89 -66 -125 -90 -36 -24 -76 -54 -90 -67 -14 -12 -61 -47 -105 -76 -44 -29 -114 -78 -155 -109 -41 -30 -85 -61 -96 -69 -12 -8 -50 -35 -84 -60 -105 -75 -280 -197 -360 -250 -41 -27 -111 -75 -155 -105 -44 -30 -108 -74 -142 -98 -34 -23 -92 -64 -130 -90 -203 -143 -446 -303 -536 -356 -23 -13 -91 -56 -152 -96 -60 -39 -141 -89 -180 -110 -38 -21 -83 -49 -100 -61 -16 -12 -93 -54 -170 -94 -77 -40 -152 -81 -167 -92 -43 -30 -179 -72 -233 -72 -139 0 -191 112 -111 241 20 33 62 89 94 125 54 62 93 109 233 278 34 41 89 104 123 140 34 36 81 90 103 120 22 30 53 66 68 80 15 14 92 100 171 192 79 92 148 170 154 173 6 4 28 30 50 59 21 30 69 87 107 129 102 112 231 262 294 341 31 39 66 80 79 91 12 11 45 49 73 85 28 36 94 112 147 170 53 58 113 128 135 155 21 28 60 73 86 100 25 28 66 75 90 106 52 66 170 205 254 297 33 37 93 105 132 152 39 47 139 157 223 245 145 154 174 195 152 217 -14 14 -337 11 -542 -7 -96 -8 -283 -19 -415 -25 -281 -12 -445 -24 -608 -45 -66 -8 -147 -15 -180 -15 -34 0 -123 -9 -197 -19 -74 -11 -173 -22 -220 -26 -167 -12 -337 -26 -490 -40 -206 -19 -565 -35 -772 -35 -188 0 -289 11 -398 43 -62 18 -84 30 -127 72 -41 40 -55 62 -68 109 -17 57 -17 63 1 140 15 66 29 97 82 176 35 52 87 120 116 150 29 30 74 82 101 115 142 179 795 856 1075 1115 74 69 187 174 250 234 63 60 156 143 205 184 50 41 101 87 115 102 34 38 348 308 529 455 82 66 193 158 248 205 55 47 153 128 218 180 65 52 148 120 184 151 36 30 145 114 241 187 96 72 222 168 280 213 381 294 686 512 955 684 52 34 105 70 117 81 13 12 73 52 133 89 61 37 119 75 130 85 11 9 54 36 95 60 41 25 107 65 145 90 334 215 427 255 506 215z"/>
    <path d="M10840 2743 c-14 -10 -59 -49 -101 -87 -99 -93 -296 -268 -334 -297 -16 -13 -70 -57 -120 -99 -175 -146 -462 -352 -725 -520 -65 -41 -126 -82 -137 -91 -10 -9 -49 -33 -88 -54 -92 -50 -186 -106 -205 -122 -9 -7 -61 -35 -115 -62 -55 -28 -131 -69 -170 -92 -38 -23 -119 -63 -180 -91 -60 -27 -117 -55 -125 -63 -8 -7 -40 -23 -70 -35 -69 -28 -222 -87 -275 -107 -22 -8 -53 -23 -70 -33 -16 -9 -54 -25 -83 -35 -62 -20 -133 -58 -154 -82 -42 -50 -78 -125 -78 -164 0 -76 58 -144 154 -180 l59 -21 89 21 c112 28 255 80 334 123 34 18 107 57 163 86 56 29 134 73 174 99 39 26 106 65 147 86 41 21 98 56 125 77 28 21 82 58 120 82 39 25 89 60 112 79 23 19 84 63 135 99 50 36 110 81 132 101 23 20 67 54 98 77 31 23 59 46 63 52 3 5 50 48 103 94 285 247 673 648 893 921 33 40 79 93 103 117 36 36 86 113 86 133 0 11 -36 3 -60 -12z"/>
    </g>
  </svg>
  <svg x="238" y="0" width="362" height="238" viewBox="0 0 2172 1428">
    <g transform="translate(0,1428) scale(0.1,-0.1)" fill="#17181c" stroke="none">
    <path d="M13273 12552 c-183 -3 -183 -3 -198 -87 -4 -21 -15 -55 -25 -75 -10 -19 -32 -96 -50 -170 -18 -74 -43 -175 -57 -225 -13 -49 -32 -124 -43 -165 -10 -41 -27 -102 -38 -135 -11 -33 -36 -132 -57 -220 -20 -88 -45 -182 -56 -210 -10 -27 -23 -72 -29 -98 -6 -27 -17 -65 -26 -85 -9 -21 -26 -86 -40 -147 -38 -177 -71 -306 -93 -370 -39 -112 -81 -255 -81 -273 0 -32 -76 -326 -92 -357 -9 -17 -19 -49 -23 -70 -4 -22 -15 -71 -26 -110 -10 -38 -30 -117 -43 -175 -28 -121 -65 -251 -94 -330 -11 -30 -35 -120 -52 -200 -30 -137 -51 -214 -120 -440 -16 -52 -45 -167 -65 -255 -21 -88 -44 -178 -52 -200 -18 -47 -44 -142 -107 -390 -25 -99 -59 -223 -76 -275 -67 -213 -68 -223 -32 -234 10 -3 496 -6 1082 -8 1126 -3 1283 1 1408 41 34 11 78 23 99 27 95 16 429 123 469 151 18 11 74 40 125 63 109 49 272 155 420 274 189 152 414 420 516 616 28 52 67 123 87 158 20 34 59 124 86 200 26 75 57 160 68 187 75 182 121 622 96 901 -7 81 -18 170 -24 198 -13 62 -66 225 -79 240 -5 6 -27 46 -50 90 -71 138 -179 259 -334 374 -94 71 -209 131 -290 153 -23 6 -58 19 -78 30 -45 22 -189 53 -331 69 -85 10 -134 10 -235 1 -179 -17 -359 -49 -402 -70 -20 -10 -47 -22 -61 -26 -96 -28 -235 -94 -326 -155 -125 -85 -148 -95 -165 -74 -9 12 -9 26 4 72 25 88 77 308 77 326 0 9 11 43 25 75 13 32 31 89 40 127 54 244 104 428 153 564 11 30 34 118 52 195 29 127 65 259 105 386 19 58 19 83 2 98 -14 11 -607 19 -964 13z m1380 -2510 c103 -34 173 -96 234 -206 47 -83 73 -195 73 -310 0 -97 -27 -300 -46 -342 -9 -22 -24 -64 -34 -94 -46 -139 -109 -276 -160 -345 -20 -27 -57 -79 -82 -115 -61 -86 -185 -206 -281 -272 -188 -128 -168 -118 -445 -224 -104 -40 -194 -48 -522 -49 -332 0 -364 4 -376 52 -9 35 11 148 35 193 11 21 23 56 27 77 10 54 89 358 109 418 9 28 32 84 50 125 18 41 45 107 59 145 54 144 193 399 269 491 26 33 65 82 85 111 88 122 323 284 476 328 208 61 383 66 529 17z"/>
    <path d="M3659 12490 c-1915 -4 -2329 -7 -2342 -18 -19 -16 -31 -51 -52 -162 -10 -47 -24 -98 -32 -114 -16 -30 -59 -189 -98 -361 -47 -208 -61 -260 -98 -360 -28 -76 -29 -93 -7 -115 20 -20 31 -20 868 -20 710 0 851 -2 867 -14 18 -13 18 -18 6 -67 -7 -30 -22 -74 -33 -99 -20 -47 -55 -169 -93 -330 -56 -234 -68 -279 -91 -340 -14 -36 -47 -153 -74 -260 -63 -248 -75 -294 -110 -410 -28 -93 -45 -158 -80 -311 -9 -41 -29 -113 -44 -160 -60 -190 -77 -251 -112 -399 -19 -85 -45 -180 -55 -210 -30 -80 -71 -236 -144 -535 -16 -68 -26 -100 -59 -195 -14 -41 -48 -170 -89 -340 -37 -148 -66 -248 -86 -290 -25 -54 -27 -93 -5 -115 14 -14 78 -15 621 -13 l605 3 18 23 c10 12 28 66 40 120 12 53 31 126 42 162 11 36 31 106 44 155 64 238 97 365 110 423 7 34 22 79 33 100 10 20 24 64 30 97 7 33 21 87 31 120 11 33 39 143 64 245 24 102 53 208 64 235 23 57 77 258 88 325 3 25 14 65 24 90 10 25 23 72 30 105 7 33 20 76 30 95 10 20 21 54 25 75 10 57 79 327 105 410 11 39 34 113 50 165 16 52 43 160 60 240 17 80 38 165 46 190 8 25 22 68 30 95 9 28 26 86 40 130 13 44 30 112 38 150 8 39 21 88 29 110 8 22 20 73 27 112 21 125 -71 113 881 113 493 0 828 4 843 10 34 13 44 35 72 167 13 63 29 124 35 134 5 11 18 57 29 102 10 45 27 109 38 142 11 33 34 123 52 200 18 77 45 181 61 230 16 50 29 103 29 117 0 29 -33 60 -60 56 -8 -2 -1062 -5 -2341 -8z"/>
    <path d="M12145 11033 c-73 -6 -379 -54 -430 -68 -149 -40 -334 -114 -415 -167 -47 -30 -107 -68 -133 -82 -26 -15 -82 -57 -123 -92 -52 -47 -81 -64 -97 -62 -21 3 -22 7 -21 78 1 41 9 101 19 134 21 72 25 150 7 168 -21 21 -145 27 -583 27 -483 1 -443 10 -485 -109 -29 -84 -29 -85 -79 -300 -20 -85 -47 -189 -60 -230 -54 -175 -75 -254 -115 -420 -23 -96 -52 -209 -65 -250 -45 -146 -76 -256 -90 -325 -8 -38 -24 -103 -35 -144 -11 -41 -20 -84 -20 -95 0 -12 -10 -41 -21 -66 -24 -52 -59 -176 -93 -335 -24 -114 -54 -226 -88 -330 -23 -71 -61 -212 -93 -350 -30 -124 -60 -230 -91 -315 -13 -36 -28 -92 -34 -125 -6 -33 -25 -111 -42 -172 -47 -170 -109 -153 562 -153 534 0 559 1 581 19 19 15 28 41 45 128 30 152 52 240 75 300 23 58 61 203 90 338 11 50 28 113 39 140 11 28 25 75 31 105 6 30 18 68 26 84 8 16 23 68 33 115 73 354 209 788 274 876 12 17 44 64 70 107 77 125 247 271 371 318 15 6 39 19 54 29 37 26 255 80 370 91 53 5 162 10 242 10 126 0 148 2 161 18 18 21 65 153 73 207 4 22 17 74 30 115 12 41 39 147 59 235 21 88 46 183 58 210 11 28 24 64 28 80 60 221 61 236 9 254 -18 6 -37 10 -43 9 -6 -1 -29 -3 -51 -5z"/>
    <path d="M18400 11031 c-132 -14 -359 -61 -413 -87 -29 -13 -58 -24 -64 -24 -30 0 -234 -75 -298 -109 -130 -70 -200 -112 -260 -159 -33 -25 -87 -67 -121 -92 -97 -72 -241 -210 -289 -276 -25 -34 -54 -69 -65 -79 -12 -10 -50 -66 -87 -124 -36 -58 -78 -124 -93 -146 -28 -42 -69 -127 -169 -349 -32 -71 -82 -250 -101 -366 -6 -36 -17 -85 -25 -110 -39 -123 -46 -548 -11 -670 9 -30 25 -98 35 -150 24 -115 60 -222 97 -287 108 -189 133 -224 228 -322 173 -178 268 -247 440 -322 50 -22 116 -51 146 -64 203 -90 716 -133 1085 -91 152 17 373 66 430 96 21 11 46 20 53 20 8 0 42 12 76 27 186 80 263 116 278 130 10 8 51 36 92 62 118 73 199 142 379 325 217 219 320 360 439 606 86 176 136 319 159 455 6 39 20 93 31 120 14 35 24 105 35 234 14 167 14 198 -1 340 -10 100 -25 184 -41 234 -14 43 -25 84 -25 92 0 31 -74 230 -104 279 -83 136 -149 221 -258 328 -110 111 -201 179 -358 270 -50 29 -222 98 -243 98 -8 0 -34 11 -59 24 -27 15 -108 37 -204 56 -147 29 -177 32 -399 35 -132 2 -274 0 -315 -4z m430 -1002 c161 -38 295 -150 377 -315 47 -93 51 -109 63 -217 15 -138 1 -318 -32 -407 -11 -30 -28 -82 -38 -115 -42 -139 -100 -265 -159 -345 -10 -14 -39 -57 -64 -96 -76 -119 -264 -270 -407 -328 -47 -18 -121 -41 -165 -51 -44 -9 -98 -21 -120 -26 -22 -4 -81 -8 -132 -9 -159 0 -373 68 -459 148 -78 73 -158 220 -180 330 -27 143 -9 415 35 500 11 21 26 62 34 92 42 150 81 229 188 380 126 177 299 327 474 409 150 71 408 93 585 50z"/>
    <path d="M5287 10959 c-25 -14 -53 -74 -67 -143 -7 -33 -20 -78 -30 -100 -9 -23 -20 -59 -24 -81 -14 -79 -86 -361 -106 -413 -11 -29 -20 -61 -20 -71 0 -11 -11 -55 -24 -98 -13 -43 -43 -157 -66 -253 -23 -96 -52 -200 -65 -230 -13 -30 -26 -75 -30 -100 -4 -25 -14 -63 -22 -85 -7 -22 -25 -87 -38 -145 -43 -181 -71 -284 -87 -315 -8 -16 -32 -102 -52 -190 -21 -88 -49 -198 -62 -245 -33 -113 -48 -270 -40 -405 7 -122 12 -143 54 -265 76 -219 188 -348 397 -458 136 -71 186 -91 261 -106 43 -8 112 -22 153 -31 89 -19 521 -23 641 -5 194 28 318 53 364 74 28 13 65 26 81 30 46 11 214 75 265 101 88 45 316 187 345 216 34 32 56 36 75 14 10 -12 4 -46 -29 -177 -47 -186 -48 -203 -21 -218 13 -7 203 -10 591 -8 550 3 571 4 585 22 7 11 16 36 19 55 5 33 24 97 86 296 12 39 32 115 44 170 40 177 55 239 71 285 42 120 45 132 104 385 47 204 70 288 90 335 10 25 35 110 53 190 75 314 112 451 131 489 8 15 17 45 21 66 4 22 20 92 35 155 16 63 32 131 35 150 4 19 14 47 21 62 22 42 66 208 130 483 21 88 45 176 55 195 9 19 22 61 29 94 6 32 20 83 30 112 27 77 35 141 20 159 -11 13 -91 15 -594 15 -511 0 -584 -2 -604 -16 -29 -20 -48 -58 -57 -114 -4 -25 -14 -63 -22 -85 -8 -22 -25 -85 -38 -140 -37 -163 -65 -266 -89 -335 -25 -70 -43 -138 -86 -325 -31 -133 -69 -278 -98 -370 -21 -66 -63 -238 -87 -353 -8 -40 -19 -81 -25 -91 -5 -10 -18 -49 -28 -87 -19 -68 -39 -120 -90 -239 -38 -87 -149 -240 -230 -317 -71 -67 -146 -115 -282 -180 -176 -84 -274 -109 -449 -110 -113 -2 -178 11 -225 45 -34 24 -76 114 -76 163 0 49 28 192 56 289 12 44 32 118 43 165 34 148 59 237 79 277 10 21 36 110 57 198 67 286 100 408 125 465 10 25 38 124 60 220 23 96 53 213 66 260 14 47 36 121 49 165 13 44 40 148 60 230 20 83 43 174 51 203 12 42 13 56 3 68 -10 12 -124 14 -783 14 -507 -1 -777 -4 -789 -11z"/>
    <path d="M17273 6579 c-168 -10 -371 -44 -445 -75 -32 -13 -63 -24 -69 -24 -12 0 -124 -51 -214 -97 -27 -14 -79 -46 -115 -70 -63 -43 -83 -57 -165 -118 -84 -63 -204 -206 -300 -360 -31 -49 -70 -108 -85 -131 -31 -44 -81 -173 -130 -334 -17 -58 -41 -130 -52 -160 -11 -30 -25 -83 -32 -118 -21 -101 -4 -96 -327 -102 l-281 -5 -23 -27 c-13 -15 -26 -46 -30 -70 -3 -24 -19 -102 -36 -174 -16 -73 -29 -141 -29 -153 0 -12 -13 -63 -30 -114 -16 -51 -36 -112 -43 -137 -8 -25 -17 -52 -21 -61 -4 -10 -1 -23 9 -33 14 -14 50 -16 279 -16 305 0 303 1 293 -75 -4 -27 -18 -73 -32 -102 -13 -30 -27 -70 -31 -91 -7 -45 -57 -250 -86 -352 -11 -41 -29 -106 -38 -145 -10 -38 -27 -95 -38 -125 -11 -30 -37 -127 -57 -215 -20 -88 -45 -185 -55 -215 -11 -30 -24 -80 -30 -110 -5 -30 -19 -77 -30 -105 -10 -27 -39 -136 -64 -241 -25 -104 -52 -207 -61 -227 -8 -20 -20 -60 -26 -89 -6 -29 -19 -78 -29 -108 -10 -30 -35 -129 -55 -220 -20 -91 -45 -187 -57 -215 -29 -71 -32 -99 -14 -114 12 -10 122 -12 535 -9 612 4 553 -10 576 137 9 51 24 110 36 132 11 22 24 59 28 82 5 23 20 83 34 132 13 50 39 153 56 230 17 77 39 160 47 185 23 63 70 239 94 345 11 50 27 107 36 129 8 21 21 69 29 107 8 38 23 86 34 107 11 21 22 56 26 77 16 94 69 327 96 415 15 52 31 111 35 130 3 19 14 55 25 80 17 44 80 287 94 363 9 56 24 83 52 96 16 7 150 11 417 11 362 0 394 1 407 18 18 20 52 136 84 282 34 151 53 223 86 325 35 107 37 140 9 155 -14 7 -155 10 -435 9 -315 -1 -419 2 -430 11 -19 15 -18 54 0 100 7 19 29 78 48 130 19 52 42 113 50 136 41 110 114 204 226 287 75 55 209 95 366 108 157 13 361 3 442 -23 46 -14 68 -16 82 -8 21 11 60 117 86 235 9 39 24 93 34 120 10 28 24 77 30 110 7 33 24 95 37 137 32 98 29 135 -13 164 -90 60 -492 101 -810 83z"/>
    <path d="M14220 6410 c-140 -14 -274 -78 -381 -182 -24 -24 -69 -83 -98 -133 -50 -82 -55 -96 -64 -177 -6 -58 -6 -118 0 -175 9 -77 16 -97 53 -158 95 -155 154 -201 334 -260 151 -48 227 -48 372 0 245 82 325 148 413 344 63 139 54 339 -22 485 -78 150 -218 235 -424 256 -48 5 -92 9 -98 8 -5 0 -44 -4 -85 -8z"/>
    <path d="M1372 6273 c-41 -8 -58 -50 -107 -278 -10 -44 -26 -96 -35 -115 -10 -19 -21 -51 -24 -70 -4 -19 -18 -73 -31 -120 -14 -47 -45 -166 -69 -265 -25 -99 -54 -205 -65 -235 -21 -59 -37 -122 -76 -296 -13 -61 -30 -124 -36 -140 -6 -16 -19 -58 -29 -94 -10 -36 -27 -90 -38 -120 -11 -30 -34 -118 -52 -195 -33 -144 -72 -291 -115 -430 -14 -44 -43 -156 -65 -250 -23 -93 -52 -198 -65 -233 -14 -34 -25 -70 -25 -81 0 -10 -13 -63 -29 -117 -15 -54 -43 -162 -60 -239 -18 -77 -41 -162 -52 -190 -28 -68 -66 -204 -100 -355 -33 -150 -75 -304 -91 -333 -6 -12 -33 -109 -60 -217 -27 -107 -61 -238 -75 -290 -40 -151 -40 -146 -2 -159 22 -8 191 -11 553 -11 585 0 557 -4 576 73 6 23 19 62 29 87 10 25 35 117 55 205 21 88 46 187 57 220 11 33 28 92 39 132 10 39 25 84 33 100 8 15 18 48 22 73 3 25 15 79 27 120 11 41 28 111 38 155 10 44 28 107 39 140 39 116 69 222 106 375 36 147 43 173 78 280 24 73 65 218 92 325 51 200 56 219 72 249 16 31 42 126 88 321 59 250 95 284 150 144 25 -66 89 -198 129 -269 8 -14 71 -142 141 -285 69 -143 135 -276 146 -295 22 -38 80 -158 125 -259 16 -36 40 -81 53 -100 13 -20 44 -81 68 -136 46 -104 81 -176 117 -235 11 -19 41 -82 66 -140 26 -58 65 -136 87 -175 22 -38 59 -113 82 -165 23 -52 48 -106 56 -120 19 -33 109 -219 143 -295 14 -33 36 -74 48 -91 12 -17 45 -84 74 -150 28 -65 65 -148 83 -184 53 -106 12 -100 638 -100 328 0 549 4 572 11 31 8 38 16 46 47 67 261 62 246 105 375 16 47 38 133 71 282 29 128 61 242 91 325 13 36 40 137 60 225 19 88 46 196 60 240 13 44 29 105 35 135 6 30 17 66 24 80 7 14 32 104 55 200 23 96 50 202 61 235 32 95 78 267 138 511 21 88 46 174 55 191 14 27 89 307 146 543 10 41 27 100 38 130 20 55 35 110 77 295 12 55 33 132 45 170 62 198 83 273 116 415 19 85 48 193 64 240 40 118 45 153 26 169 -21 17 -1043 19 -1075 2 -29 -16 -49 -58 -66 -141 -8 -39 -24 -92 -34 -118 -25 -59 -93 -314 -147 -547 -7 -33 -25 -87 -38 -120 -14 -33 -26 -68 -26 -78 0 -27 -57 -255 -107 -427 -25 -85 -65 -236 -90 -335 -24 -99 -53 -207 -64 -240 -11 -33 -26 -85 -33 -115 -8 -30 -25 -93 -39 -140 -14 -47 -39 -148 -56 -225 -30 -131 -38 -161 -74 -275 -40 -123 -58 -194 -77 -295 -27 -141 -28 -143 -52 -156 -26 -14 -53 9 -69 60 -6 20 -19 54 -29 76 -34 73 -110 229 -130 265 -11 19 -50 98 -88 175 -38 77 -76 154 -85 170 -9 17 -35 72 -57 122 -22 51 -63 134 -90 184 -28 50 -60 114 -70 142 -11 29 -35 81 -54 117 -19 36 -55 108 -80 160 -65 135 -117 232 -132 250 -7 9 -20 35 -29 59 -15 45 -122 266 -149 311 -9 14 -36 72 -62 130 -25 58 -49 110 -54 115 -13 17 -86 165 -125 255 -21 47 -44 92 -51 101 -8 9 -48 87 -89 174 -41 87 -85 174 -99 194 -13 20 -29 53 -36 73 -11 36 -60 88 -83 88 -115 4 -1038 6 -1055 3z"/>
    <path d="M11165 5915 c-14 -13 -25 -32 -25 -41 0 -30 -52 -237 -66 -266 -13 -25 -49 -152 -81 -283 -60 -242 -76 -302 -90 -317 -14 -16 -50 -18 -363 -20 -397 -3 -384 -1 -395 -87 -10 -69 -65 -298 -87 -361 -20 -54 -65 -227 -75 -286 -10 -59 -4 -59 342 -56 281 4 313 2 328 -13 19 -19 22 -51 7 -91 -6 -14 -21 -79 -35 -143 -24 -117 -51 -217 -87 -326 -21 -63 -41 -141 -78 -310 -21 -95 -61 -234 -101 -356 -10 -31 -30 -109 -44 -175 -13 -65 -29 -135 -34 -154 -6 -19 -18 -103 -26 -188 -14 -139 -14 -168 0 -305 17 -159 44 -263 92 -345 46 -81 148 -187 225 -234 141 -87 183 -105 303 -134 118 -28 125 -29 400 -29 262 0 290 2 440 28 148 26 253 53 315 81 38 17 65 84 115 281 25 99 54 200 64 225 10 25 26 79 35 120 9 41 25 108 36 149 18 68 19 77 4 98 -18 29 -19 28 -161 -38 -144 -67 -259 -94 -398 -94 -138 1 -199 19 -250 77 -63 69 -75 107 -74 238 0 81 6 135 19 185 11 39 29 115 40 170 12 54 23 102 26 106 2 5 15 54 28 111 13 57 33 128 44 158 22 59 40 128 76 285 12 55 30 123 39 150 8 28 21 75 28 105 6 30 20 75 31 99 10 23 25 74 32 112 21 99 41 136 82 149 18 6 38 9 43 6 4 -3 201 -6 436 -6 355 -1 431 2 442 13 8 8 28 72 44 143 16 71 42 170 59 219 16 50 32 106 35 125 4 19 20 78 36 130 35 113 36 134 7 155 -20 14 -76 15 -453 15 -382 -1 -430 0 -441 14 -12 17 8 122 39 211 8 22 18 60 21 85 4 25 20 95 36 155 15 61 31 128 35 150 4 21 15 55 25 75 10 19 23 61 30 93 6 33 18 75 26 94 14 32 14 37 -2 54 -16 18 -40 19 -546 19 l-529 0 -24 -25z"/>
    <path d="M7939 5076 c-2 -2 -71 -9 -154 -15 -271 -21 -347 -37 -646 -139 -164 -56 -380 -177 -549 -307 -92 -71 -235 -210 -286 -278 -23 -31 -61 -78 -85 -105 -82 -93 -234 -358 -280 -491 -11 -30 -25 -64 -32 -75 -25 -40 -85 -252 -106 -376 -50 -291 -49 -517 4 -777 31 -155 67 -242 168 -408 89 -145 257 -318 418 -430 130 -91 411 -211 564 -240 44 -9 107 -22 140 -30 162 -38 589 -38 805 -1 207 37 258 51 425 118 28 11 75 28 105 38 61 19 174 72 199 93 9 7 50 33 91 57 106 62 208 141 355 275 76 69 237 268 327 405 51 78 138 245 138 266 0 5 12 31 26 58 39 74 72 178 94 296 10 58 27 134 37 170 15 55 18 105 18 335 0 231 -3 279 -19 335 -10 36 -26 101 -36 145 -35 153 -83 257 -195 420 -95 137 -253 287 -389 369 -28 17 -65 40 -81 52 -37 25 -167 84 -186 84 -8 0 -39 12 -69 26 -130 60 -226 83 -453 109 -202 23 -337 31 -348 21z m188 -927 c84 -23 202 -75 263 -115 36 -24 120 -129 120 -149 0 -4 15 -32 34 -63 28 -47 38 -79 55 -183 12 -70 21 -147 21 -170 -1 -82 -48 -338 -68 -372 -11 -17 -25 -51 -31 -74 -50 -188 -252 -461 -422 -572 -62 -40 -177 -95 -289 -138 -74 -27 -79 -28 -280 -28 l-206 0 -74 34 c-101 45 -204 115 -244 165 -127 159 -182 429 -127 630 11 44 21 88 21 97 0 23 72 239 101 304 12 28 34 68 49 90 15 22 47 72 72 110 58 90 122 161 213 234 104 85 139 106 240 146 219 86 377 102 552 54z"/>
    <path d="M13544 4980 c-33 -13 -25 14 -99 -331 -13 -58 -30 -119 -38 -135 -8 -16 -18 -45 -21 -64 -4 -19 -20 -80 -36 -135 -15 -55 -42 -161 -60 -235 -17 -74 -35 -151 -40 -170 -4 -19 -17 -57 -28 -85 -22 -54 -40 -119 -78 -290 -13 -60 -30 -130 -39 -155 -8 -25 -21 -72 -28 -105 -8 -33 -24 -82 -35 -110 -12 -27 -35 -113 -52 -190 -18 -77 -38 -165 -46 -195 -8 -30 -25 -96 -38 -146 -13 -50 -30 -102 -39 -115 -9 -13 -19 -42 -22 -64 -10 -58 -73 -316 -101 -415 -14 -47 -38 -128 -53 -180 -34 -113 -91 -348 -91 -372 0 -9 7 -24 16 -32 14 -14 75 -16 527 -16 439 0 516 2 534 15 22 16 57 108 68 184 4 24 14 59 21 77 8 19 21 67 29 107 21 102 62 262 86 332 21 60 29 93 88 342 31 133 81 296 101 334 11 19 19 54 74 299 14 63 37 151 50 195 66 215 87 292 121 440 20 88 47 189 60 225 28 80 70 231 89 325 31 156 68 301 86 334 9 20 25 68 33 106 9 39 23 90 32 114 21 60 19 98 -4 111 -24 12 -1036 13 -1067 0z"/>
    <path d="M18100 4977 c-15 -7 -28 -26 -33 -47 -5 -19 -19 -71 -33 -115 -22 -72 -72 -285 -89 -375 -3 -19 -19 -75 -35 -125 -48 -145 -78 -256 -90 -325 -6 -36 -19 -94 -30 -130 -10 -36 -24 -94 -30 -129 -6 -36 -20 -82 -31 -103 -10 -21 -26 -68 -34 -105 -7 -38 -20 -86 -28 -108 -8 -22 -17 -62 -21 -90 -9 -67 -60 -277 -98 -402 -30 -101 -30 -106 -31 -330 0 -192 3 -235 17 -273 10 -25 28 -76 41 -115 46 -142 88 -215 184 -322 87 -98 157 -154 284 -227 188 -108 610 -157 932 -107 145 23 326 73 367 103 15 10 42 24 60 30 51 17 172 87 225 130 74 59 106 78 131 78 18 0 22 -5 22 -32 0 -36 -28 -136 -71 -250 -16 -42 -29 -83 -29 -91 0 -18 -64 -197 -85 -237 -8 -15 -42 -63 -75 -105 -49 -60 -82 -90 -160 -141 -87 -56 -112 -67 -205 -89 -171 -40 -259 -46 -502 -35 -120 6 -240 15 -268 20 -27 6 -94 17 -147 25 -53 8 -114 22 -135 30 -21 9 -67 25 -103 35 -36 10 -112 35 -170 56 -58 20 -129 45 -159 55 -30 11 -62 25 -70 33 -26 23 -79 46 -104 46 -30 0 -69 -43 -91 -100 -10 -25 -26 -58 -36 -75 -10 -16 -32 -64 -50 -105 -17 -41 -60 -133 -95 -205 -146 -298 -146 -304 -36 -359 36 -18 90 -45 118 -60 29 -15 101 -43 160 -63 231 -77 271 -91 292 -103 12 -6 79 -22 147 -35 463 -89 1086 -89 1475 1 63 15 128 34 144 44 17 10 48 23 70 30 105 34 272 124 379 204 206 155 429 394 518 556 23 41 51 89 63 105 12 17 38 68 59 115 21 47 48 108 61 135 12 28 26 61 30 75 4 14 15 36 25 50 19 28 90 251 90 282 0 11 14 61 30 111 17 51 40 121 51 157 12 36 30 99 40 140 43 183 82 327 94 350 7 14 18 50 24 80 6 30 20 82 30 115 11 33 36 132 56 220 20 88 43 180 52 205 8 25 24 77 34 115 11 39 26 90 34 115 8 25 26 97 40 160 27 127 63 256 93 340 11 30 27 87 37 125 67 273 88 349 127 470 18 57 88 348 102 428 4 24 16 43 31 53 20 13 25 25 25 60 l0 44 -540 0 c-376 0 -546 -3 -564 -11 -39 -18 -73 -120 -140 -419 -14 -63 -37 -153 -51 -200 -13 -47 -27 -100 -30 -119 -4 -18 -16 -52 -26 -76 -10 -23 -25 -71 -33 -106 -48 -218 -69 -303 -92 -379 -61 -201 -76 -253 -113 -406 -33 -133 -51 -181 -101 -278 -73 -144 -96 -175 -212 -294 -98 -101 -126 -121 -264 -192 -102 -53 -190 -84 -279 -99 -249 -41 -443 -5 -524 97 -78 99 -98 196 -65 317 36 134 62 234 79 300 64 267 96 386 114 430 11 28 27 79 36 115 48 195 80 325 100 410 12 52 32 118 43 145 27 67 61 190 83 300 22 115 66 265 96 333 25 58 29 102 11 120 -18 18 -1113 17 -1148 -1z"/>
    </g>
  </svg>
</svg>