<svg xmlns="http://www.w3.org/2000/svg" viewBox="0 0 244 80" role="img" aria-label="Turbo Notify">
  <title>Turbo Notify</title>
  <defs>
    <linearGradient id="g" x1="1" y1="0" x2="0" y2="1">
      <stop offset="0%" stop-color="#6edebe"/>
      <stop offset="50%" stop-color="#23b38a"/>
      <stop offset="100%" stop-color="#177d60"/>
    </linearGradient>
  </defs>
  <g transform="scale(0.76)">
  <path d="M 18,5 H 80 Q 93,5 93,18 V 67 Q 93,80 80,80 H 26 L 7,95 L 22,80 Q 7,80 7,67 V 18 Q 7,5 18,5 Z" fill="url(#g)"/>
  <ellipse cx="28" cy="22" rx="22" ry="12" fill="white" fill-opacity="0.09" transform="rotate(-18 28 22)"/>
  <path d="M 62,15 L 41,51 H 55 L 40,78 L 68,43 H 54 Z" fill="white"/>
  </g>
  <g transform="translate(81.120,-10.715)">
    <path d="M 39.111328,22.197266 H 29.121094 V 48 h -8.25 V 22.197266 h -9.990235 v -6.1875 H 39.111328 Z M 67.685547,48 h -7.734375 v -2.664063 q -2.148438,1.632813 -3.931641,2.492188 -1.783203,0.837891 -4.253906,0.837891 -3.996094,0 -6.166016,-2.298829 -2.148437,-2.298828 -2.148437,-6.789062 V 23.873047 h 7.777344 v 11.966797 q 0,1.826172 0.107421,3.050781 0.128907,1.203125 0.558594,1.998047 0.408203,0.794922 1.22461,1.160156 0.83789,0.365234 2.320312,0.365234 0.988281,0 2.191406,-0.365234 1.203125,-0.365234 2.320313,-1.074219 V 23.873047 h 7.734375 z M 92.478516,31.242187 h -0.6875 q -0.494141,-0.171875 -1.589844,-0.257812 -1.095703,-0.08594 -1.826172,-0.08594 -1.654297,0 -2.921875,0.214844 -1.267578,0.214844 -2.728516,0.730469 V 48 H 74.990234 V 23.873047 h 7.734375 v 3.544922 q 2.556641,-2.191407 4.447266,-2.900391 1.890625,-0.730469 3.480469,-0.730469 0.408203,0 0.923828,0.02148 0.515625,0.02148 0.902344,0.06445 z m 29.562504,4.361329 q 0,5.693359 -3.15821,9.28125 -3.13672,3.58789 -7.84179,3.58789 -2.01954,0 -3.54493,-0.429687 -1.52539,-0.429688 -2.90039,-1.246094 L 104.27344,48 H 96.861328 V 14.570313 h 7.734372 v 11.816406 q 1.78321,-1.417969 3.63086,-2.298828 1.86914,-0.88086 4.29688,-0.88086 4.57617,0 7.04687,3.308594 2.47071,3.287109 2.47071,9.087891 z m -7.97071,0.15039 q 0,-3.222656 -1.0957,-4.96289 -1.0957,-1.740235 -3.91016,-1.740235 -1.0957,0 -2.25586,0.34375 -1.16015,0.322266 -2.21289,0.945313 v 12.117187 q 0.83789,0.300781 1.58985,0.408203 0.75195,0.107422 1.80468,0.107422 3.07227,0 4.57618,-1.804687 1.5039,-1.804688 1.5039,-5.414063 z m 38.22071,0.19336 q 0,5.951171 -3.48047,9.388671 -3.45899,3.416016 -9.73243,3.416016 -6.27343,0 -9.7539,-3.416016 -3.45899,-3.4375 -3.45899,-9.388671 0,-5.994141 3.48047,-9.410157 3.50196,-3.416015 9.73242,-3.416015 6.31641,0 9.75391,3.4375 3.45899,3.4375 3.45899,9.388672 z m -9.51758,5.865234 q 0.75195,-0.923828 1.11718,-2.212891 0.38672,-1.310547 0.38672,-3.609375 0,-2.126953 -0.38672,-3.566406 -0.38671,-1.439453 -1.07421,-2.298828 -0.6875,-0.880859 -1.6543,-1.246094 -0.9668,-0.365234 -2.08399,-0.365234 -1.11718,0 -1.99804,0.300781 -0.85938,0.300781 -1.6543,1.203125 -0.70898,0.837891 -1.13867,2.298828 -0.4082,1.460938 -0.4082,3.673828 0,1.976563 0.36523,3.4375 0.36523,1.439453 1.07422,2.320313 0.6875,0.83789 1.63281,1.224609 0.9668,0.386719 2.19141,0.386719 1.05273,0 1.99804,-0.34375 0.9668,-0.365234 1.63282,-1.203125 z" fill="#17181c"/>
    <path d="M 43.171875,78 H 35.222656 L 21.644531,56.042969 V 78 h -7.5625 V 46.009766 h 9.861328 L 35.609375,64.335937 V 46.009766 h 7.5625 z M 75.570312,65.947266 q 0,5.951171 -3.480468,9.388671 -3.458985,3.416016 -9.732422,3.416016 -6.273438,0 -9.753906,-3.416016 -3.458985,-3.4375 -3.458985,-9.388671 0,-5.994141 3.480469,-9.410157 3.501953,-3.416015 9.732422,-3.416015 6.316406,0 9.753906,3.4375 3.458984,3.4375 3.458984,9.388672 z M 66.052734,71.8125 q 0.751953,-0.923828 1.117188,-2.212891 0.386719,-1.310547 0.386719,-3.609375 0,-2.126953 -0.386719,-3.566406 -0.386719,-1.439453 -1.074219,-2.298828 -0.6875,-0.880859 -1.654297,-1.246094 -0.966797,-0.365234 -2.083984,-0.365234 -1.117188,0 -1.998047,0.300781 -0.859375,0.300781 -1.654297,1.203125 -0.708984,0.837891 -1.138672,2.298828 -0.408203,1.460938 -0.408203,3.673828 0,1.976563 0.365234,3.4375 0.365235,1.439453 1.074219,2.320313 0.6875,0.83789 1.632813,1.224609 0.966797,0.386719 2.191406,0.386719 1.052734,0 1.998047,-0.34375 0.966797,-0.365234 1.632812,-1.203125 z m 30.486328,5.972656 q -1.246093,0.322266 -2.642578,0.494141 -1.396484,0.193359 -3.416015,0.193359 -4.511719,0 -6.72461,-1.826172 -2.191406,-1.826172 -2.191406,-6.251953 V 59.115234 h -3.179687 v -5.242187 h 3.179687 v -6.896485 h 7.734375 v 6.896485 h 7.240234 v 5.242187 h -7.240234 v 8.550782 q 0,1.267578 0.02148,2.21289 0.02148,0.945313 0.34375,1.697266 0.300782,0.751953 1.052735,1.203125 0.773437,0.429687 2.234375,0.429687 0.601562,0 1.568359,-0.257812 0.988281,-0.257813 1.375,-0.472656 h 0.644531 z M 108.89258,78 H 101.1582 V 53.873047 h 7.73438 z m 0.21484,-27.564453 h -8.16406 v -5.865235 h 8.16406 z m 22.73047,-0.19336 h -0.58008 q -0.51562,-0.15039 -1.35351,-0.34375 -0.81641,-0.193359 -1.76172,-0.193359 -2.27735,0 -3.09375,0.816406 -0.79492,0.816407 -0.79492,3.158203 v 0.19336 h 5.97265 v 5.242187 h -5.71484 V 78 h -7.73438 V 59.115234 h -3.30859 v -5.242187 h 3.30859 v -0.666016 q 0,-4.425781 2.3418,-6.638672 2.36328,-2.21289 7.13281,-2.21289 1.71875,0 3.11524,0.128906 1.39648,0.107422 2.4707,0.300781 z m 13.83594,19.228516 5.5,-15.597656 h 7.94922 L 145.7168,86.851562 h -8.37891 l 3.82422,-9.023437 -9.38867,-23.955078 h 8.12109 z" fill="#17181c"/>
  </g>
</svg>